<svg width="210" height="64" viewBox="0 0 210 64" fill="none" xmlns="http://www.w3.org/2000/svg">
<path d="M76.9775 3.04688V13H75.6787V3.04688H76.9775ZM80.1768 3.04688V4.12695H72.4863V3.04688H80.1768ZM85.0439 11.7354V7.92773C85.0439 7.63607 84.9847 7.38314 84.8662 7.16895C84.7523 6.9502 84.5791 6.78158 84.3467 6.66309C84.1143 6.5446 83.8271 6.48535 83.4854 6.48535C83.1663 6.48535 82.8861 6.54004 82.6445 6.64941C82.4076 6.75879 82.2207 6.90234 82.084 7.08008C81.9518 7.25781 81.8857 7.44922 81.8857 7.6543H80.6211C80.6211 7.38997 80.6895 7.12793 80.8262 6.86816C80.9629 6.6084 81.1589 6.3737 81.4141 6.16406C81.6738 5.94987 81.9837 5.78125 82.3438 5.6582C82.7083 5.5306 83.1139 5.4668 83.5605 5.4668C84.0983 5.4668 84.5723 5.55794 84.9824 5.74023C85.3971 5.92253 85.7207 6.19824 85.9531 6.56738C86.1901 6.93197 86.3086 7.38997 86.3086 7.94141V11.3867C86.3086 11.6328 86.3291 11.8949 86.3701 12.1729C86.4157 12.4508 86.4818 12.6901 86.5684 12.8906V13H85.249C85.1852 12.8542 85.1351 12.6605 85.0986 12.4189C85.0622 12.1729 85.0439 11.945 85.0439 11.7354ZM85.2627 8.51562L85.2764 9.4043H83.998C83.638 9.4043 83.3167 9.43392 83.0342 9.49316C82.7516 9.54785 82.5146 9.63216 82.3232 9.74609C82.1318 9.86003 81.986 10.0036 81.8857 10.1768C81.7855 10.3454 81.7354 10.5436 81.7354 10.7715C81.7354 11.0039 81.7878 11.2158 81.8926 11.4072C81.9974 11.5986 82.1546 11.7513 82.3643 11.8652C82.5785 11.9746 82.8405 12.0293 83.1504 12.0293C83.5378 12.0293 83.8796 11.9473 84.1758 11.7832C84.472 11.6191 84.7067 11.4186 84.8799 11.1816C85.0576 10.9447 85.1533 10.7145 85.167 10.4912L85.707 11.0996C85.6751 11.291 85.5885 11.5029 85.4473 11.7354C85.306 11.9678 85.1169 12.1911 84.8799 12.4053C84.6475 12.6149 84.3695 12.7904 84.0459 12.9316C83.7269 13.0684 83.3669 13.1367 82.9658 13.1367C82.4645 13.1367 82.0247 13.0387 81.6465 12.8428C81.2728 12.6468 80.9811 12.3848 80.7715 12.0566C80.5664 11.724 80.4639 11.3525 80.4639 10.9424C80.4639 10.5459 80.5413 10.1973 80.6963 9.89648C80.8512 9.59115 81.0745 9.33822 81.3662 9.1377C81.6579 8.93262 82.0088 8.77767 82.4189 8.67285C82.8291 8.56803 83.2871 8.51562 83.793 8.51562H85.2627ZM84.1758 4.40039H83.2666L83.2598 3.36133C83.4922 3.34766 83.6813 3.32487 83.8271 3.29297C83.973 3.25651 84.0801 3.2041 84.1484 3.13574C84.2168 3.06283 84.251 2.96712 84.251 2.84863C84.251 2.75293 84.2214 2.67318 84.1621 2.60938C84.1029 2.54102 84.0208 2.48633 83.916 2.44531C83.8112 2.39974 83.6904 2.36784 83.5537 2.34961C83.417 2.33138 83.2712 2.32227 83.1162 2.32227L83.1641 1.59766C83.5013 1.59766 83.7975 1.62728 84.0527 1.68652C84.3125 1.74577 84.529 1.83236 84.7021 1.94629C84.8799 2.06022 85.012 2.19694 85.0986 2.35645C85.1898 2.51139 85.2354 2.68457 85.2354 2.87598C85.2354 3.22233 85.126 3.47526 84.9072 3.63477C84.6885 3.78971 84.4469 3.88542 84.1826 3.92188L84.1758 4.40039ZM89.6719 5.60352V13H88.4004V5.60352H89.6719ZM88.3047 3.6416C88.3047 3.43652 88.3662 3.26335 88.4893 3.12207C88.6169 2.98079 88.8037 2.91016 89.0498 2.91016C89.2913 2.91016 89.4759 2.98079 89.6035 3.12207C89.7357 3.26335 89.8018 3.43652 89.8018 3.6416C89.8018 3.83757 89.7357 4.00618 89.6035 4.14746C89.4759 4.28418 89.2913 4.35254 89.0498 4.35254C88.8037 4.35254 88.6169 4.28418 88.4893 4.14746C88.3662 4.00618 88.3047 3.83757 88.3047 3.6416ZM102.1 5.00879H103.07C103.07 5.50553 103.004 5.92253 102.872 6.25977C102.744 6.59701 102.519 6.84993 102.195 7.01855C101.872 7.18717 101.416 7.27148 100.828 7.27148V6.49219C101.238 6.49219 101.532 6.44206 101.71 6.3418C101.888 6.23698 101.997 6.0752 102.038 5.85645C102.079 5.6377 102.1 5.35514 102.1 5.00879ZM99.7002 11.291V5.60352H100.972V13H99.7617L99.7002 11.291ZM99.9395 9.73242L100.466 9.71875C100.466 10.2109 100.413 10.6667 100.309 11.0859C100.208 11.5007 100.044 11.8607 99.8164 12.166C99.5885 12.4714 99.29 12.7106 98.9209 12.8838C98.5518 13.0524 98.1029 13.1367 97.5742 13.1367C97.2142 13.1367 96.8838 13.0843 96.583 12.9795C96.2868 12.8747 96.0316 12.7129 95.8174 12.4941C95.6032 12.2754 95.4368 11.9906 95.3184 11.6396C95.2044 11.2887 95.1475 10.8672 95.1475 10.375V5.60352H96.4121V10.3887C96.4121 10.7214 96.4486 10.9971 96.5215 11.2158C96.599 11.43 96.7015 11.6009 96.8291 11.7285C96.9613 11.8516 97.1071 11.9382 97.2666 11.9883C97.4307 12.0384 97.5993 12.0635 97.7725 12.0635C98.3102 12.0635 98.7363 11.9609 99.0508 11.7559C99.3652 11.5462 99.5908 11.266 99.7275 10.915C99.8688 10.5596 99.9395 10.1654 99.9395 9.73242ZM97.4785 4.65332L98.8047 2.64355H100.329L98.4971 4.65332H97.4785ZM105.107 7.18262V13H103.843V5.60352H105.039L105.107 7.18262ZM104.807 9.02148L104.28 9.00098C104.285 8.49512 104.36 8.02799 104.506 7.59961C104.652 7.16667 104.857 6.79069 105.121 6.47168C105.385 6.15267 105.7 5.90658 106.064 5.7334C106.434 5.55566 106.841 5.4668 107.288 5.4668C107.653 5.4668 107.981 5.51693 108.272 5.61719C108.564 5.71289 108.812 5.86784 109.018 6.08203C109.227 6.29622 109.387 6.57422 109.496 6.91602C109.605 7.25326 109.66 7.66569 109.66 8.15332V13H108.389V8.13965C108.389 7.75228 108.332 7.44238 108.218 7.20996C108.104 6.97298 107.938 6.80208 107.719 6.69727C107.5 6.58789 107.231 6.5332 106.912 6.5332C106.598 6.5332 106.311 6.59928 106.051 6.73145C105.796 6.86361 105.575 7.0459 105.388 7.27832C105.205 7.51074 105.062 7.77734 104.957 8.07812C104.857 8.37435 104.807 8.6888 104.807 9.02148ZM116.373 5.60352H117.521V12.8428C117.521 13.4945 117.389 14.0505 117.125 14.5107C116.861 14.971 116.492 15.3197 116.018 15.5566C115.548 15.7982 115.006 15.9189 114.391 15.9189C114.135 15.9189 113.835 15.8779 113.488 15.7959C113.146 15.7184 112.809 15.584 112.477 15.3926C112.148 15.2057 111.873 14.9528 111.649 14.6338L112.312 13.8818C112.622 14.2555 112.946 14.5153 113.283 14.6611C113.625 14.807 113.962 14.8799 114.295 14.8799C114.696 14.8799 115.042 14.8047 115.334 14.6543C115.626 14.5039 115.851 14.2806 116.011 13.9844C116.175 13.6927 116.257 13.3327 116.257 12.9043V7.23047L116.373 5.60352ZM111.28 9.38379V9.24023C111.28 8.67513 111.346 8.16243 111.479 7.70215C111.615 7.2373 111.809 6.83854 112.06 6.50586C112.315 6.17318 112.622 5.91797 112.982 5.74023C113.342 5.55794 113.748 5.4668 114.199 5.4668C114.664 5.4668 115.07 5.54883 115.416 5.71289C115.767 5.8724 116.063 6.1071 116.305 6.41699C116.551 6.72233 116.744 7.09147 116.886 7.52441C117.027 7.95736 117.125 8.44727 117.18 8.99414V9.62305C117.13 10.1654 117.032 10.653 116.886 11.0859C116.744 11.5189 116.551 11.888 116.305 12.1934C116.063 12.4987 115.767 12.7334 115.416 12.8975C115.065 13.057 114.655 13.1367 114.186 13.1367C113.743 13.1367 113.342 13.0433 112.982 12.8564C112.627 12.6696 112.322 12.4076 112.066 12.0703C111.811 11.7331 111.615 11.3366 111.479 10.8809C111.346 10.4206 111.28 9.92155 111.28 9.38379ZM112.545 9.24023V9.38379C112.545 9.75293 112.581 10.0993 112.654 10.4229C112.732 10.7464 112.848 11.0312 113.003 11.2773C113.162 11.5234 113.365 11.7171 113.611 11.8584C113.857 11.9951 114.151 12.0635 114.493 12.0635C114.912 12.0635 115.259 11.9746 115.532 11.7969C115.806 11.6191 116.022 11.3844 116.182 11.0928C116.346 10.8011 116.473 10.4844 116.564 10.1426V8.49512C116.514 8.24447 116.437 8.00293 116.332 7.77051C116.232 7.53353 116.1 7.32389 115.936 7.1416C115.776 6.95475 115.578 6.80664 115.341 6.69727C115.104 6.58789 114.826 6.5332 114.507 6.5332C114.16 6.5332 113.862 6.60612 113.611 6.75195C113.365 6.89323 113.162 7.08919 113.003 7.33984C112.848 7.58594 112.732 7.87305 112.654 8.20117C112.581 8.52474 112.545 8.87109 112.545 9.24023ZM127.577 11.5645V2.5H128.849V13H127.687L127.577 11.5645ZM122.601 9.38379V9.24023C122.601 8.67513 122.669 8.16243 122.806 7.70215C122.947 7.2373 123.145 6.83854 123.4 6.50586C123.66 6.17318 123.968 5.91797 124.323 5.74023C124.683 5.55794 125.084 5.4668 125.526 5.4668C125.991 5.4668 126.397 5.54883 126.743 5.71289C127.094 5.8724 127.39 6.1071 127.632 6.41699C127.878 6.72233 128.072 7.09147 128.213 7.52441C128.354 7.95736 128.452 8.44727 128.507 8.99414V9.62305C128.457 10.1654 128.359 10.653 128.213 11.0859C128.072 11.5189 127.878 11.888 127.632 12.1934C127.39 12.4987 127.094 12.7334 126.743 12.8975C126.392 13.057 125.982 13.1367 125.513 13.1367C125.08 13.1367 124.683 13.0433 124.323 12.8564C123.968 12.6696 123.66 12.4076 123.4 12.0703C123.145 11.7331 122.947 11.3366 122.806 10.8809C122.669 10.4206 122.601 9.92155 122.601 9.38379ZM123.872 9.24023V9.38379C123.872 9.75293 123.909 10.0993 123.981 10.4229C124.059 10.7464 124.177 11.0312 124.337 11.2773C124.496 11.5234 124.699 11.7171 124.945 11.8584C125.191 11.9951 125.485 12.0635 125.827 12.0635C126.246 12.0635 126.59 11.9746 126.859 11.7969C127.133 11.6191 127.352 11.3844 127.516 11.0928C127.68 10.8011 127.807 10.4844 127.898 10.1426V8.49512C127.844 8.24447 127.764 8.00293 127.659 7.77051C127.559 7.53353 127.427 7.32389 127.263 7.1416C127.103 6.95475 126.905 6.80664 126.668 6.69727C126.436 6.58789 126.16 6.5332 125.841 6.5332C125.494 6.5332 125.196 6.60612 124.945 6.75195C124.699 6.89323 124.496 7.08919 124.337 7.33984C124.177 7.58594 124.059 7.87305 123.981 8.20117C123.909 8.52474 123.872 8.87109 123.872 9.24023ZM135.343 11.291V5.60352H136.614V13H135.404L135.343 11.291ZM135.582 9.73242L136.108 9.71875C136.108 10.2109 136.056 10.6667 135.951 11.0859C135.851 11.5007 135.687 11.8607 135.459 12.166C135.231 12.4714 134.933 12.7106 134.563 12.8838C134.194 13.0524 133.745 13.1367 133.217 13.1367C132.857 13.1367 132.526 13.0843 132.226 12.9795C131.929 12.8747 131.674 12.7129 131.46 12.4941C131.246 12.2754 131.079 11.9906 130.961 11.6396C130.847 11.2887 130.79 10.8672 130.79 10.375V5.60352H132.055V10.3887C132.055 10.7214 132.091 10.9971 132.164 11.2158C132.242 11.43 132.344 11.6009 132.472 11.7285C132.604 11.8516 132.75 11.9382 132.909 11.9883C133.073 12.0384 133.242 12.0635 133.415 12.0635C133.953 12.0635 134.379 11.9609 134.693 11.7559C135.008 11.5462 135.233 11.266 135.37 10.915C135.511 10.5596 135.582 10.1654 135.582 9.73242ZM132.547 14.6816C132.547 14.4766 132.608 14.3034 132.731 14.1621C132.859 14.0208 133.046 13.9502 133.292 13.9502C133.534 13.9502 133.718 14.0208 133.846 14.1621C133.978 14.3034 134.044 14.4766 134.044 14.6816C134.044 14.8776 133.978 15.0439 133.846 15.1807C133.718 15.3219 133.534 15.3926 133.292 15.3926C133.046 15.3926 132.859 15.3219 132.731 15.1807C132.608 15.0439 132.547 14.8776 132.547 14.6816ZM139.807 7.18262V13H138.542V5.60352H139.738L139.807 7.18262ZM139.506 9.02148L138.979 9.00098C138.984 8.49512 139.059 8.02799 139.205 7.59961C139.351 7.16667 139.556 6.79069 139.82 6.47168C140.085 6.15267 140.399 5.90658 140.764 5.7334C141.133 5.55566 141.541 5.4668 141.987 5.4668C142.352 5.4668 142.68 5.51693 142.972 5.61719C143.263 5.71289 143.512 5.86784 143.717 6.08203C143.926 6.29622 144.086 6.57422 144.195 6.91602C144.305 7.25326 144.359 7.66569 144.359 8.15332V13H143.088V8.13965C143.088 7.75228 143.031 7.44238 142.917 7.20996C142.803 6.97298 142.637 6.80208 142.418 6.69727C142.199 6.58789 141.93 6.5332 141.611 6.5332C141.297 6.5332 141.01 6.59928 140.75 6.73145C140.495 6.86361 140.274 7.0459 140.087 7.27832C139.905 7.51074 139.761 7.77734 139.656 8.07812C139.556 8.37435 139.506 8.6888 139.506 9.02148ZM151.072 5.60352H152.221V12.8428C152.221 13.4945 152.089 14.0505 151.824 14.5107C151.56 14.971 151.191 15.3197 150.717 15.5566C150.247 15.7982 149.705 15.9189 149.09 15.9189C148.835 15.9189 148.534 15.8779 148.188 15.7959C147.846 15.7184 147.508 15.584 147.176 15.3926C146.848 15.2057 146.572 14.9528 146.349 14.6338L147.012 13.8818C147.322 14.2555 147.645 14.5153 147.982 14.6611C148.324 14.807 148.661 14.8799 148.994 14.8799C149.395 14.8799 149.742 14.8047 150.033 14.6543C150.325 14.5039 150.55 14.2806 150.71 13.9844C150.874 13.6927 150.956 13.3327 150.956 12.9043V7.23047L151.072 5.60352ZM145.979 9.38379V9.24023C145.979 8.67513 146.046 8.16243 146.178 7.70215C146.314 7.2373 146.508 6.83854 146.759 6.50586C147.014 6.17318 147.322 5.91797 147.682 5.74023C148.042 5.55794 148.447 5.4668 148.898 5.4668C149.363 5.4668 149.769 5.54883 150.115 5.71289C150.466 5.8724 150.762 6.1071 151.004 6.41699C151.25 6.72233 151.444 7.09147 151.585 7.52441C151.726 7.95736 151.824 8.44727 151.879 8.99414V9.62305C151.829 10.1654 151.731 10.653 151.585 11.0859C151.444 11.5189 151.25 11.888 151.004 12.1934C150.762 12.4987 150.466 12.7334 150.115 12.8975C149.764 13.057 149.354 13.1367 148.885 13.1367C148.443 13.1367 148.042 13.0433 147.682 12.8564C147.326 12.6696 147.021 12.4076 146.766 12.0703C146.51 11.7331 146.314 11.3366 146.178 10.8809C146.046 10.4206 145.979 9.92155 145.979 9.38379ZM147.244 9.24023V9.38379C147.244 9.75293 147.281 10.0993 147.354 10.4229C147.431 10.7464 147.547 11.0312 147.702 11.2773C147.862 11.5234 148.064 11.7171 148.311 11.8584C148.557 11.9951 148.851 12.0635 149.192 12.0635C149.612 12.0635 149.958 11.9746 150.231 11.7969C150.505 11.6191 150.721 11.3844 150.881 11.0928C151.045 10.8011 151.173 10.4844 151.264 10.1426V8.49512C151.214 8.24447 151.136 8.00293 151.031 7.77051C150.931 7.53353 150.799 7.32389 150.635 7.1416C150.475 6.95475 150.277 6.80664 150.04 6.69727C149.803 6.58789 149.525 6.5332 149.206 6.5332C148.86 6.5332 148.561 6.60612 148.311 6.75195C148.064 6.89323 147.862 7.08919 147.702 7.33984C147.547 7.58594 147.431 7.87305 147.354 8.20117C147.281 8.52474 147.244 8.87109 147.244 9.24023ZM161.49 3.92871L158.195 13H156.849L160.643 3.04688H161.511L161.49 3.92871ZM164.252 13L160.95 3.92871L160.93 3.04688H161.798L165.605 13H164.252ZM164.081 9.31543V10.3955H158.489V9.31543H164.081ZM168.012 7.18262V13H166.747V5.60352H167.943L168.012 7.18262ZM167.711 9.02148L167.185 9.00098C167.189 8.49512 167.264 8.02799 167.41 7.59961C167.556 7.16667 167.761 6.79069 168.025 6.47168C168.29 6.15267 168.604 5.90658 168.969 5.7334C169.338 5.55566 169.746 5.4668 170.192 5.4668C170.557 5.4668 170.885 5.51693 171.177 5.61719C171.468 5.71289 171.717 5.86784 171.922 6.08203C172.132 6.29622 172.291 6.57422 172.4 6.91602C172.51 7.25326 172.564 7.66569 172.564 8.15332V13H171.293V8.13965C171.293 7.75228 171.236 7.44238 171.122 7.20996C171.008 6.97298 170.842 6.80208 170.623 6.69727C170.404 6.58789 170.135 6.5332 169.816 6.5332C169.502 6.5332 169.215 6.59928 168.955 6.73145C168.7 6.86361 168.479 7.0459 168.292 7.27832C168.11 7.51074 167.966 7.77734 167.861 8.07812C167.761 8.37435 167.711 8.6888 167.711 9.02148ZM179.147 11.5645V2.5H180.419V13H179.257L179.147 11.5645ZM174.171 9.38379V9.24023C174.171 8.67513 174.239 8.16243 174.376 7.70215C174.517 7.2373 174.715 6.83854 174.971 6.50586C175.23 6.17318 175.538 5.91797 175.894 5.74023C176.254 5.55794 176.655 5.4668 177.097 5.4668C177.562 5.4668 177.967 5.54883 178.313 5.71289C178.664 5.8724 178.961 6.1071 179.202 6.41699C179.448 6.72233 179.642 7.09147 179.783 7.52441C179.924 7.95736 180.022 8.44727 180.077 8.99414V9.62305C180.027 10.1654 179.929 10.653 179.783 11.0859C179.642 11.5189 179.448 11.888 179.202 12.1934C178.961 12.4987 178.664 12.7334 178.313 12.8975C177.963 13.057 177.552 13.1367 177.083 13.1367C176.65 13.1367 176.254 13.0433 175.894 12.8564C175.538 12.6696 175.23 12.4076 174.971 12.0703C174.715 11.7331 174.517 11.3366 174.376 10.8809C174.239 10.4206 174.171 9.92155 174.171 9.38379ZM175.442 9.24023V9.38379C175.442 9.75293 175.479 10.0993 175.552 10.4229C175.629 10.7464 175.748 11.0312 175.907 11.2773C176.067 11.5234 176.27 11.7171 176.516 11.8584C176.762 11.9951 177.056 12.0635 177.397 12.0635C177.817 12.0635 178.161 11.9746 178.43 11.7969C178.703 11.6191 178.922 11.3844 179.086 11.0928C179.25 10.8011 179.378 10.4844 179.469 10.1426V8.49512C179.414 8.24447 179.334 8.00293 179.229 7.77051C179.129 7.53353 178.997 7.32389 178.833 7.1416C178.674 6.95475 178.475 6.80664 178.238 6.69727C178.006 6.58789 177.73 6.5332 177.411 6.5332C177.065 6.5332 176.766 6.60612 176.516 6.75195C176.27 6.89323 176.067 7.08919 175.907 7.33984C175.748 7.58594 175.629 7.87305 175.552 8.20117C175.479 8.52474 175.442 8.87109 175.442 9.24023ZM183.652 6.76562V13H182.388V5.60352H183.618L183.652 6.76562ZM185.963 5.5625L185.956 6.73828C185.851 6.71549 185.751 6.70182 185.655 6.69727C185.564 6.68815 185.459 6.68359 185.341 6.68359C185.049 6.68359 184.792 6.72917 184.568 6.82031C184.345 6.91146 184.156 7.03906 184.001 7.20312C183.846 7.36719 183.723 7.56315 183.632 7.79102C183.545 8.01432 183.488 8.26042 183.461 8.5293L183.105 8.73438C183.105 8.28776 183.149 7.86849 183.235 7.47656C183.326 7.08464 183.465 6.73828 183.652 6.4375C183.839 6.13216 184.076 5.89518 184.363 5.72656C184.655 5.55339 185.001 5.4668 185.402 5.4668C185.493 5.4668 185.598 5.47819 185.717 5.50098C185.835 5.51921 185.917 5.53971 185.963 5.5625ZM186.66 9.38379V9.22656C186.66 8.69336 186.738 8.19889 186.893 7.74316C187.048 7.28288 187.271 6.88411 187.562 6.54688C187.854 6.20508 188.207 5.94076 188.622 5.75391C189.037 5.5625 189.502 5.4668 190.017 5.4668C190.536 5.4668 191.003 5.5625 191.418 5.75391C191.837 5.94076 192.193 6.20508 192.484 6.54688C192.781 6.88411 193.006 7.28288 193.161 7.74316C193.316 8.19889 193.394 8.69336 193.394 9.22656V9.38379C193.394 9.91699 193.316 10.4115 193.161 10.8672C193.006 11.3229 192.781 11.7217 192.484 12.0635C192.193 12.4007 191.84 12.665 191.425 12.8564C191.015 13.0433 190.55 13.1367 190.03 13.1367C189.511 13.1367 189.044 13.0433 188.629 12.8564C188.214 12.665 187.859 12.4007 187.562 12.0635C187.271 11.7217 187.048 11.3229 186.893 10.8672C186.738 10.4115 186.66 9.91699 186.66 9.38379ZM187.925 9.22656V9.38379C187.925 9.75293 187.968 10.1016 188.055 10.4297C188.141 10.7533 188.271 11.0404 188.444 11.291C188.622 11.5417 188.843 11.7399 189.107 11.8857C189.372 12.027 189.679 12.0977 190.03 12.0977C190.377 12.0977 190.68 12.027 190.939 11.8857C191.204 11.7399 191.423 11.5417 191.596 11.291C191.769 11.0404 191.899 10.7533 191.985 10.4297C192.076 10.1016 192.122 9.75293 192.122 9.38379V9.22656C192.122 8.86198 192.076 8.5179 191.985 8.19434C191.899 7.86621 191.767 7.57682 191.589 7.32617C191.416 7.07096 191.197 6.87044 190.933 6.72461C190.673 6.57878 190.368 6.50586 190.017 6.50586C189.67 6.50586 189.365 6.57878 189.101 6.72461C188.841 6.87044 188.622 7.07096 188.444 7.32617C188.271 7.57682 188.141 7.86621 188.055 8.19434C187.968 8.5179 187.925 8.86198 187.925 9.22656ZM196.354 5.60352V13H195.082V5.60352H196.354ZM194.986 3.6416C194.986 3.43652 195.048 3.26335 195.171 3.12207C195.299 2.98079 195.485 2.91016 195.731 2.91016C195.973 2.91016 196.158 2.98079 196.285 3.12207C196.417 3.26335 196.483 3.43652 196.483 3.6416C196.483 3.83757 196.417 4.00618 196.285 4.14746C196.158 4.28418 195.973 4.35254 195.731 4.35254C195.485 4.35254 195.299 4.28418 195.171 4.14746C195.048 4.00618 194.986 3.83757 194.986 3.6416ZM203.046 11.5645V2.5H204.317V13H203.155L203.046 11.5645ZM198.069 9.38379V9.24023C198.069 8.67513 198.138 8.16243 198.274 7.70215C198.416 7.2373 198.614 6.83854 198.869 6.50586C199.129 6.17318 199.437 5.91797 199.792 5.74023C200.152 5.55794 200.553 5.4668 200.995 5.4668C201.46 5.4668 201.866 5.54883 202.212 5.71289C202.563 5.8724 202.859 6.1071 203.101 6.41699C203.347 6.72233 203.54 7.09147 203.682 7.52441C203.823 7.95736 203.921 8.44727 203.976 8.99414V9.62305C203.925 10.1654 203.827 10.653 203.682 11.0859C203.54 11.5189 203.347 11.888 203.101 12.1934C202.859 12.4987 202.563 12.7334 202.212 12.8975C201.861 13.057 201.451 13.1367 200.981 13.1367C200.549 13.1367 200.152 13.0433 199.792 12.8564C199.437 12.6696 199.129 12.4076 198.869 12.0703C198.614 11.7331 198.416 11.3366 198.274 10.8809C198.138 10.4206 198.069 9.92155 198.069 9.38379ZM199.341 9.24023V9.38379C199.341 9.75293 199.377 10.0993 199.45 10.4229C199.528 10.7464 199.646 11.0312 199.806 11.2773C199.965 11.5234 200.168 11.7171 200.414 11.8584C200.66 11.9951 200.954 12.0635 201.296 12.0635C201.715 12.0635 202.059 11.9746 202.328 11.7969C202.602 11.6191 202.82 11.3844 202.984 11.0928C203.148 10.8011 203.276 10.4844 203.367 10.1426V8.49512C203.312 8.24447 203.233 8.00293 203.128 7.77051C203.028 7.53353 202.896 7.32389 202.731 7.1416C202.572 6.95475 202.374 6.80664 202.137 6.69727C201.904 6.58789 201.629 6.5332 201.31 6.5332C200.963 6.5332 200.665 6.60612 200.414 6.75195C200.168 6.89323 199.965 7.08919 199.806 7.33984C199.646 7.58594 199.528 7.87305 199.45 8.20117C199.377 8.52474 199.341 8.87109 199.341 9.24023ZM206.231 12.3301C206.231 12.1159 206.298 11.9359 206.43 11.79C206.566 11.6396 206.762 11.5645 207.018 11.5645C207.273 11.5645 207.466 11.6396 207.599 11.79C207.735 11.9359 207.804 12.1159 207.804 12.3301C207.804 12.5397 207.735 12.7174 207.599 12.8633C207.466 13.0091 207.273 13.082 207.018 13.082C206.762 13.082 206.566 13.0091 206.43 12.8633C206.298 12.7174 206.231 12.5397 206.231 12.3301ZM206.238 6.29395C206.238 6.07975 206.304 5.89974 206.437 5.75391C206.573 5.60352 206.769 5.52832 207.024 5.52832C207.28 5.52832 207.473 5.60352 207.605 5.75391C207.742 5.89974 207.811 6.07975 207.811 6.29395C207.811 6.50358 207.742 6.68132 207.605 6.82715C207.473 6.97298 207.28 7.0459 207.024 7.0459C206.769 7.0459 206.573 6.97298 206.437 6.82715C206.304 6.68132 206.238 6.50358 206.238 6.29395Z" fill="black"/>
<path d="M1.72973 0H0V1.72973H1.72973V0Z" fill="black"/>
<path d="M3.45946 0H1.72973V1.72973H3.45946V0Z" fill="black"/>
<path d="M5.18919 0H3.45946V1.72973H5.18919V0Z" fill="black"/>
<path d="M6.91892 0H5.18919V1.72973H6.91892V0Z" fill="black"/>
<path d="M8.64865 0H6.91892V1.72973H8.64865V0Z" fill="black"/>
<path d="M10.3784 0H8.64865V1.72973H10.3784V0Z" fill="black"/>
<path d="M12.1081 0H10.3784V1.72973H12.1081V0Z" fill="black"/>
<path d="M15.5676 0H13.8378V1.72973H15.5676V0Z" fill="black"/>
<path d="M20.7568 0H19.027V1.72973H20.7568V0Z" fill="black"/>
<path d="M24.2162 0H22.4865V1.72973H24.2162V0Z" fill="black"/>
<path d="M25.9459 0H24.2162V1.72973H25.9459V0Z" fill="black"/>
<path d="M27.6757 0H25.9459V1.72973H27.6757V0Z" fill="black"/>
<path d="M29.4054 0H27.6757V1.72973H29.4054V0Z" fill="black"/>
<path d="M34.5946 0H32.8649V1.72973H34.5946V0Z" fill="black"/>
<path d="M36.3243 0H34.5946V1.72973H36.3243V0Z" fill="black"/>
<path d="M39.7838 0H38.0541V1.72973H39.7838V0Z" fill="black"/>
<path d="M41.5135 0H39.7838V1.72973H41.5135V0Z" fill="black"/>
<path d="M46.7027 0H44.973V1.72973H46.7027V0Z" fill="black"/>
<path d="M50.1622 0H48.4324V1.72973H50.1622V0Z" fill="black"/>
<path d="M53.6216 0H51.8919V1.72973H53.6216V0Z" fill="black"/>
<path d="M55.3514 0H53.6216V1.72973H55.3514V0Z" fill="black"/>
<path d="M57.0811 0H55.3514V1.72973H57.0811V0Z" fill="black"/>
<path d="M58.8108 0H57.0811V1.72973H58.8108V0Z" fill="black"/>
<path d="M60.5405 0H58.8108V1.72973H60.5405V0Z" fill="black"/>
<path d="M62.2703 0H60.5405V1.72973H62.2703V0Z" fill="black"/>
<path d="M64 0H62.2703V1.72973H64V0Z" fill="black"/>
<path d="M1.72973 1.72973H0V3.45946H1.72973V1.72973Z" fill="black"/>
<path d="M12.1081 1.72973H10.3784V3.45946H12.1081V1.72973Z" fill="black"/>
<path d="M17.2973 1.72973H15.5676V3.45946H17.2973V1.72973Z" fill="black"/>
<path d="M24.2162 1.72973H22.4865V3.45946H24.2162V1.72973Z" fill="black"/>
<path d="M25.9459 1.72973H24.2162V3.45946H25.9459V1.72973Z" fill="black"/>
<path d="M31.1351 1.72973H29.4054L29.4054 3.45946H31.1351V1.72973Z" fill="black"/>
<path d="M36.3243 1.72973H34.5946V3.45946H36.3243V1.72973Z" fill="black"/>
<path d="M39.7838 1.72973H38.0541V3.45946H39.7838V1.72973Z" fill="black"/>
<path d="M46.7027 1.72973H44.973V3.45946H46.7027V1.72973Z" fill="black"/>
<path d="M50.1622 1.72973H48.4324V3.45946H50.1622V1.72973Z" fill="black"/>
<path d="M53.6216 1.72973H51.8919V3.45946H53.6216V1.72973Z" fill="black"/>
<path d="M64 1.72973H62.2703V3.45946H64V1.72973Z" fill="black"/>
<path d="M1.72973 3.45946H0V5.18919H1.72973V3.45946Z" fill="black"/>
<path d="M5.18919 3.45946H3.45946V5.18919H5.18919V3.45946Z" fill="black"/>
<path d="M6.91892 3.45946H5.18919V5.18919H6.91892V3.45946Z" fill="black"/>
<path d="M8.64865 3.45946H6.91892V5.18919H8.64865V3.45946Z" fill="black"/>
<path d="M12.1081 3.45946H10.3784V5.18919H12.1081V3.45946Z" fill="black"/>
<path d="M15.5676 3.45946H13.8378V5.18919H15.5676V3.45946Z" fill="black"/>
<path d="M17.2973 3.45946H15.5676V5.18919H17.2973V3.45946Z" fill="black"/>
<path d="M24.2162 3.45946H22.4865V5.18919H24.2162V3.45946Z" fill="black"/>
<path d="M27.6757 3.45946H25.9459L25.9459 5.18919H27.6757V3.45946Z" fill="black"/>
<path d="M29.4054 3.45946H27.6757V5.18919H29.4054L29.4054 3.45946Z" fill="black"/>
<path d="M32.8649 3.45946H31.1351L31.1351 5.18919H32.8649V3.45946Z" fill="black"/>
<path d="M36.3243 3.45946H34.5946V5.18919H36.3243V3.45946Z" fill="black"/>
<path d="M39.7838 3.45946H38.0541V5.18919H39.7838V3.45946Z" fill="black"/>
<path d="M44.973 3.45946H43.2432V5.18919H44.973V3.45946Z" fill="black"/>
<path d="M46.7027 3.45946H44.973V5.18919H46.7027V3.45946Z" fill="black"/>
<path d="M48.4324 3.45946H46.7027V5.18919H48.4324V3.45946Z" fill="black"/>
<path d="M50.1622 3.45946H48.4324V5.18919H50.1622V3.45946Z" fill="black"/>
<path d="M53.6216 3.45946H51.8919V5.18919H53.6216V3.45946Z" fill="black"/>
<path d="M57.0811 3.45946H55.3514V5.18919H57.0811V3.45946Z" fill="black"/>
<path d="M58.8108 3.45946H57.0811V5.18919H58.8108V3.45946Z" fill="black"/>
<path d="M60.5405 3.45946H58.8108V5.18919H60.5405V3.45946Z" fill="black"/>
<path d="M64 3.45946H62.2703V5.18919H64V3.45946Z" fill="black"/>
<path d="M1.72973 5.18919H0V6.91892H1.72973V5.18919Z" fill="black"/>
<path d="M5.18919 5.18919H3.45946V6.91892H5.18919V5.18919Z" fill="black"/>
<path d="M6.91892 5.18919H5.18919V6.91892H6.91892V5.18919Z" fill="black"/>
<path d="M8.64865 5.18919H6.91892V6.91892H8.64865V5.18919Z" fill="black"/>
<path d="M12.1081 5.18919H10.3784V6.91892H12.1081V5.18919Z" fill="black"/>
<path d="M19.027 5.18919H17.2973V6.91892H19.027V5.18919Z" fill="black"/>
<path d="M20.7568 5.18919H19.027V6.91892H20.7568V5.18919Z" fill="black"/>
<path d="M22.4865 5.18919H20.7568V6.91892H22.4865L22.4865 5.18919Z" fill="black"/>
<path d="M27.6757 5.18919H25.9459V6.91892H27.6757V5.18919Z" fill="black"/>
<path d="M29.4054 5.18919H27.6757V6.91892H29.4054V5.18919Z" fill="black"/>
<path d="M32.8649 5.18919H31.1351V6.91892H32.8649V5.18919Z" fill="black"/>
<path d="M38.0541 5.18919H36.3243V6.91892H38.0541V5.18919Z" fill="black"/>
<path d="M39.7838 5.18919H38.0541V6.91892H39.7838V5.18919Z" fill="black"/>
<path d="M41.5135 5.18919H39.7838V6.91892H41.5135V5.18919Z" fill="black"/>
<path d="M46.7027 5.18919H44.973V6.91892H46.7027V5.18919Z" fill="black"/>
<path d="M48.4324 5.18919H46.7027V6.91892H48.4324V5.18919Z" fill="black"/>
<path d="M53.6216 5.18919H51.8919V6.91892H53.6216V5.18919Z" fill="black"/>
<path d="M57.0811 5.18919H55.3514V6.91892H57.0811V5.18919Z" fill="black"/>
<path d="M58.8108 5.18919H57.0811V6.91892H58.8108V5.18919Z" fill="black"/>
<path d="M60.5405 5.18919H58.8108V6.91892H60.5405V5.18919Z" fill="black"/>
<path d="M64 5.18919H62.2703V6.91892H64V5.18919Z" fill="black"/>
<path d="M1.72973 6.91892H0V8.64865H1.72973V6.91892Z" fill="black"/>
<path d="M5.18919 6.91892H3.45946V8.64865H5.18919V6.91892Z" fill="black"/>
<path d="M6.91892 6.91892H5.18919V8.64865H6.91892V6.91892Z" fill="black"/>
<path d="M8.64865 6.91892H6.91892V8.64865H8.64865V6.91892Z" fill="black"/>
<path d="M12.1081 6.91892H10.3784V8.64865H12.1081V6.91892Z" fill="black"/>
<path d="M17.2973 6.91892H15.5676V8.64865H17.2973V6.91892Z" fill="black"/>
<path d="M20.7568 6.91892H19.027V8.64865H20.7568V6.91892Z" fill="black"/>
<path d="M22.4865 6.91892H20.7568V8.64865H22.4865V6.91892Z" fill="black"/>
<path d="M24.2162 6.91892H22.4865V8.64865H24.2162V6.91892Z" fill="black"/>
<path d="M25.9459 6.91892H24.2162V8.64865H25.9459L25.9459 6.91892Z" fill="black"/>
<path d="M31.1351 6.91892H29.4054L29.4054 8.64865H31.1351L31.1351 6.91892Z" fill="black"/>
<path d="M32.8649 6.91892H31.1351L31.1351 8.64865H32.8649V6.91892Z" fill="black"/>
<path d="M34.5946 6.91892H32.8649V8.64865H34.5946V6.91892Z" fill="black"/>
<path d="M36.3243 6.91892H34.5946V8.64865H36.3243V6.91892Z" fill="black"/>
<path d="M38.0541 6.91892H36.3243V8.64865H38.0541V6.91892Z" fill="black"/>
<path d="M41.5135 6.91892H39.7838V8.64865H41.5135V6.91892Z" fill="black"/>
<path d="M43.2432 6.91892H41.5135V8.64865H43.2432V6.91892Z" fill="black"/>
<path d="M53.6216 6.91892H51.8919V8.64865H53.6216V6.91892Z" fill="black"/>
<path d="M57.0811 6.91892H55.3514V8.64865H57.0811V6.91892Z" fill="black"/>
<path d="M58.8108 6.91892H57.0811V8.64865H58.8108V6.91892Z" fill="black"/>
<path d="M60.5405 6.91892H58.8108V8.64865H60.5405V6.91892Z" fill="black"/>
<path d="M64 6.91892H62.2703V8.64865H64V6.91892Z" fill="black"/>
<path d="M1.72973 8.64865H0V10.3784H1.72973V8.64865Z" fill="black"/>
<path d="M12.1081 8.64865H10.3784V10.3784H12.1081V8.64865Z" fill="black"/>
<path d="M17.2973 8.64865H15.5676V10.3784H17.2973V8.64865Z" fill="black"/>
<path d="M20.7568 8.64865H19.027V10.3784H20.7568V8.64865Z" fill="black"/>
<path d="M22.4865 8.64865H20.7568V10.3784H22.4865V8.64865Z" fill="black"/>
<path d="M24.2162 8.64865H22.4865V10.3784H24.2162V8.64865Z" fill="black"/>
<path d="M32.8649 8.64865H31.1351L31.1351 10.3784H32.8649V8.64865Z" fill="black"/>
<path d="M34.5946 8.64865H32.8649V10.3784H34.5946V8.64865Z" fill="black"/>
<path d="M39.7838 8.64865H38.0541V10.3784H39.7838V8.64865Z" fill="black"/>
<path d="M53.6216 8.64865H51.8919V10.3784H53.6216V8.64865Z" fill="black"/>
<path d="M64 8.64865H62.2703V10.3784H64V8.64865Z" fill="black"/>
<path d="M1.72973 10.3784H0V12.1081H1.72973V10.3784Z" fill="black"/>
<path d="M3.45946 10.3784H1.72973V12.1081H3.45946V10.3784Z" fill="black"/>
<path d="M5.18919 10.3784H3.45946V12.1081H5.18919V10.3784Z" fill="black"/>
<path d="M6.91892 10.3784H5.18919V12.1081H6.91892V10.3784Z" fill="black"/>
<path d="M8.64865 10.3784H6.91892V12.1081H8.64865V10.3784Z" fill="black"/>
<path d="M10.3784 10.3784H8.64865V12.1081H10.3784V10.3784Z" fill="black"/>
<path d="M12.1081 10.3784H10.3784V12.1081H12.1081V10.3784Z" fill="black"/>
<path d="M15.5676 10.3784H13.8378V12.1081H15.5676V10.3784Z" fill="black"/>
<path d="M19.027 10.3784H17.2973V12.1081H19.027V10.3784Z" fill="black"/>
<path d="M22.4865 10.3784H20.7568L20.7568 12.1081H22.4865V10.3784Z" fill="black"/>
<path d="M25.9459 10.3784H24.2162V12.1081H25.9459V10.3784Z" fill="black"/>
<path d="M29.4054 10.3784H27.6757V12.1081H29.4054V10.3784Z" fill="black"/>
<path d="M32.8649 10.3784H31.1351V12.1081H32.8649V10.3784Z" fill="black"/>
<path d="M36.3243 10.3784H34.5946V12.1081H36.3243V10.3784Z" fill="black"/>
<path d="M39.7838 10.3784H38.0541V12.1081H39.7838V10.3784Z" fill="black"/>
<path d="M43.2432 10.3784H41.5135V12.1081H43.2432V10.3784Z" fill="black"/>
<path d="M46.7027 10.3784H44.973V12.1081H46.7027V10.3784Z" fill="black"/>
<path d="M50.1622 10.3784H48.4324V12.1081H50.1622V10.3784Z" fill="black"/>
<path d="M53.6216 10.3784H51.8919V12.1081H53.6216V10.3784Z" fill="black"/>
<path d="M55.3514 10.3784H53.6216V12.1081H55.3514V10.3784Z" fill="black"/>
<path d="M57.0811 10.3784H55.3514V12.1081H57.0811V10.3784Z" fill="black"/>
<path d="M58.8108 10.3784H57.0811V12.1081H58.8108V10.3784Z" fill="black"/>
<path d="M60.5405 10.3784H58.8108V12.1081H60.5405V10.3784Z" fill="black"/>
<path d="M62.2703 10.3784H60.5405V12.1081H62.2703V10.3784Z" fill="black"/>
<path d="M64 10.3784H62.2703V12.1081H64V10.3784Z" fill="black"/>
<path d="M15.5676 12.1081H13.8378V13.8378H15.5676V12.1081Z" fill="black"/>
<path d="M20.7568 12.1081H19.027V13.8378H20.7568L20.7568 12.1081Z" fill="black"/>
<path d="M22.4865 12.1081H20.7568L20.7568 13.8378H22.4865V12.1081Z" fill="black"/>
<path d="M25.9459 12.1081H24.2162V13.8378H25.9459V12.1081Z" fill="black"/>
<path d="M27.6757 12.1081H25.9459V13.8378H27.6757L27.6757 12.1081Z" fill="black"/>
<path d="M31.1351 12.1081H29.4054L29.4054 13.8378H31.1351L31.1351 12.1081Z" fill="black"/>
<path d="M38.0541 12.1081H36.3243V13.8378H38.0541V12.1081Z" fill="black"/>
<path d="M39.7838 12.1081H38.0541V13.8378H39.7838V12.1081Z" fill="black"/>
<path d="M44.973 12.1081H43.2432V13.8378H44.973V12.1081Z" fill="black"/>
<path d="M46.7027 12.1081H44.973V13.8378H46.7027V12.1081Z" fill="black"/>
<path d="M48.4324 12.1081H46.7027V13.8378H48.4324V12.1081Z" fill="black"/>
<path d="M50.1622 12.1081H48.4324V13.8378H50.1622V12.1081Z" fill="black"/>
<path d="M1.72973 13.8378H0V15.5676H1.72973V13.8378Z" fill="black"/>
<path d="M5.18919 13.8378H3.45946V15.5676H5.18919V13.8378Z" fill="black"/>
<path d="M10.3784 13.8378H8.64865V15.5676H10.3784V13.8378Z" fill="black"/>
<path d="M12.1081 13.8378H10.3784V15.5676H12.1081V13.8378Z" fill="black"/>
<path d="M17.2973 13.8378H15.5676V15.5676H17.2973V13.8378Z" fill="black"/>
<path d="M19.027 13.8378H17.2973V15.5676H19.027V13.8378Z" fill="black"/>
<path d="M20.7568 13.8378H19.027V15.5676H20.7568V13.8378Z" fill="black"/>
<path d="M22.4865 13.8378H20.7568V15.5676H22.4865V13.8378Z" fill="black"/>
<path d="M27.6757 13.8378H25.9459L25.9459 15.5676H27.6757V13.8378Z" fill="black"/>
<path d="M29.4054 13.8378H27.6757V15.5676H29.4054L29.4054 13.8378Z" fill="black"/>
<path d="M36.3243 13.8378H34.5946V15.5676H36.3243V13.8378Z" fill="black"/>
<path d="M38.0541 13.8378H36.3243V15.5676H38.0541V13.8378Z" fill="black"/>
<path d="M39.7838 13.8378H38.0541V15.5676H39.7838V13.8378Z" fill="black"/>
<path d="M41.5135 13.8378H39.7838V15.5676H41.5135V13.8378Z" fill="black"/>
<path d="M44.973 13.8378H43.2432V15.5676H44.973V13.8378Z" fill="black"/>
<path d="M50.1622 13.8378H48.4324V15.5676H50.1622V13.8378Z" fill="black"/>
<path d="M51.8919 13.8378H50.1622V15.5676H51.8919V13.8378Z" fill="black"/>
<path d="M53.6216 13.8378H51.8919V15.5676H53.6216V13.8378Z" fill="black"/>
<path d="M60.5405 13.8378H58.8108V15.5676H60.5405V13.8378Z" fill="black"/>
<path d="M64 13.8378H62.2703V15.5676H64V13.8378Z" fill="black"/>
<path d="M3.45946 15.5676H1.72973V17.2973H3.45946V15.5676Z" fill="black"/>
<path d="M6.91892 15.5676H5.18919V17.2973H6.91892V15.5676Z" fill="black"/>
<path d="M10.3784 15.5676H8.64865V17.2973H10.3784V15.5676Z" fill="black"/>
<path d="M13.8378 15.5676H12.1081V17.2973H13.8378V15.5676Z" fill="black"/>
<path d="M17.2973 15.5676H15.5676V17.2973H17.2973V15.5676Z" fill="black"/>
<path d="M20.7568 15.5676H19.027V17.2973H20.7568V15.5676Z" fill="black"/>
<path d="M24.2162 15.5676H22.4865L22.4865 17.2973H24.2162V15.5676Z" fill="black"/>
<path d="M25.9459 15.5676H24.2162V17.2973H25.9459L25.9459 15.5676Z" fill="black"/>
<path d="M29.4054 15.5676H27.6757L27.6757 17.2973H29.4054V15.5676Z" fill="black"/>
<path d="M32.8649 15.5676H31.1351V17.2973H32.8649V15.5676Z" fill="black"/>
<path d="M39.7838 15.5676H38.0541V17.2973H39.7838V15.5676Z" fill="black"/>
<path d="M41.5135 15.5676H39.7838V17.2973H41.5135V15.5676Z" fill="black"/>
<path d="M48.4324 15.5676H46.7027V17.2973H48.4324V15.5676Z" fill="black"/>
<path d="M51.8919 15.5676H50.1622V17.2973H51.8919V15.5676Z" fill="black"/>
<path d="M53.6216 15.5676H51.8919V17.2973H53.6216V15.5676Z" fill="black"/>
<path d="M58.8108 15.5676H57.0811V17.2973H58.8108V15.5676Z" fill="black"/>
<path d="M60.5405 15.5676H58.8108V17.2973H60.5405V15.5676Z" fill="black"/>
<path d="M62.2703 15.5676H60.5405V17.2973H62.2703V15.5676Z" fill="black"/>
<path d="M64 15.5676H62.2703V17.2973H64V15.5676Z" fill="black"/>
<path d="M1.72973 17.2973H0V19.027H1.72973V17.2973Z" fill="black"/>
<path d="M3.45946 17.2973H1.72973V19.027H3.45946V17.2973Z" fill="black"/>
<path d="M6.91892 17.2973H5.18919V19.027H6.91892V17.2973Z" fill="black"/>
<path d="M8.64865 17.2973H6.91892V19.027H8.64865V17.2973Z" fill="black"/>
<path d="M12.1081 17.2973H10.3784V19.027H12.1081V17.2973Z" fill="black"/>
<path d="M15.5676 17.2973H13.8378V19.027H15.5676V17.2973Z" fill="black"/>
<path d="M19.027 17.2973H17.2973V19.027H19.027V17.2973Z" fill="black"/>
<path d="M20.7568 17.2973H19.027V19.027H20.7568V17.2973Z" fill="black"/>
<path d="M22.4865 17.2973H20.7568V19.027H22.4865L22.4865 17.2973Z" fill="black"/>
<path d="M24.2162 17.2973H22.4865L22.4865 19.027H24.2162V17.2973Z" fill="black"/>
<path d="M34.5946 17.2973H32.8649V19.027H34.5946V17.2973Z" fill="black"/>
<path d="M36.3243 17.2973H34.5946V19.027H36.3243V17.2973Z" fill="black"/>
<path d="M38.0541 17.2973H36.3243V19.027H38.0541V17.2973Z" fill="black"/>
<path d="M39.7838 17.2973H38.0541V19.027H39.7838V17.2973Z" fill="black"/>
<path d="M46.7027 17.2973H44.973V19.027H46.7027V17.2973Z" fill="black"/>
<path d="M50.1622 17.2973H48.4324V19.027H50.1622V17.2973Z" fill="black"/>
<path d="M58.8108 17.2973H57.0811V19.027H58.8108V17.2973Z" fill="black"/>
<path d="M60.5405 17.2973H58.8108V19.027H60.5405V17.2973Z" fill="black"/>
<path d="M62.2703 17.2973H60.5405V19.027H62.2703V17.2973Z" fill="black"/>
<path d="M3.45946 19.027H1.72973V20.7568H3.45946V19.027Z" fill="black"/>
<path d="M6.91892 19.027H5.18919V20.7568H6.91892V19.027Z" fill="black"/>
<path d="M8.64865 19.027H6.91892V20.7568H8.64865V19.027Z" fill="black"/>
<path d="M10.3784 19.027H8.64865V20.7568H10.3784V19.027Z" fill="black"/>
<path d="M20.7568 19.027H19.027V20.7568H20.7568V19.027Z" fill="black"/>
<path d="M24.2162 19.027H22.4865L22.4865 20.7568H24.2162V19.027Z" fill="black"/>
<path d="M27.6757 19.027H25.9459V20.7568H27.6757V19.027Z" fill="black"/>
<path d="M29.4054 19.027H27.6757V20.7568H29.4054V19.027Z" fill="black"/>
<path d="M31.1351 19.027H29.4054V20.7568H31.1351V19.027Z" fill="black"/>
<path d="M44.973 19.027H43.2432V20.7568H44.973V19.027Z" fill="black"/>
<path d="M50.1622 19.027H48.4324V20.7568H50.1622V19.027Z" fill="black"/>
<path d="M51.8919 19.027H50.1622V20.7568H51.8919V19.027Z" fill="black"/>
<path d="M57.0811 19.027H55.3514V20.7568H57.0811V19.027Z" fill="black"/>
<path d="M60.5405 19.027H58.8108V20.7568H60.5405V19.027Z" fill="black"/>
<path d="M62.2703 19.027H60.5405V20.7568H62.2703V19.027Z" fill="black"/>
<path d="M1.72973 20.7568L0 20.7568V22.4865H1.72973V20.7568Z" fill="black"/>
<path d="M3.45946 20.7568H1.72973V22.4865H3.45946V20.7568Z" fill="black"/>
<path d="M8.64865 20.7568H6.91892V22.4865H8.64865V20.7568Z" fill="black"/>
<path d="M10.3784 20.7568H8.64865V22.4865H10.3784V20.7568Z" fill="black"/>
<path d="M12.1081 20.7568L10.3784 20.7568V22.4865H12.1081V20.7568Z" fill="black"/>
<path d="M13.8378 20.7568H12.1081V22.4865H13.8378V20.7568Z" fill="black"/>
<path d="M15.5676 20.7568H13.8378V22.4865H15.5676V20.7568Z" fill="black"/>
<path d="M19.027 20.7568L17.2973 20.7568V22.4865H19.027V20.7568Z" fill="black"/>
<path d="M24.2162 20.7568H22.4865V22.4865H24.2162V20.7568Z" fill="black"/>
<path d="M25.9459 20.7568H24.2162V22.4865H25.9459L25.9459 20.7568Z" fill="black"/>
<path d="M27.6757 20.7568H25.9459L25.9459 22.4865H27.6757V20.7568Z" fill="black"/>
<path d="M31.1351 20.7568H29.4054L29.4054 22.4865H31.1351V20.7568Z" fill="black"/>
<path d="M36.3243 20.7568H34.5946V22.4865H36.3243V20.7568Z" fill="black"/>
<path d="M38.0541 20.7568H36.3243V22.4865H38.0541V20.7568Z" fill="black"/>
<path d="M39.7838 20.7568H38.0541V22.4865H39.7838V20.7568Z" fill="black"/>
<path d="M44.973 20.7568H43.2432V22.4865H44.973V20.7568Z" fill="black"/>
<path d="M50.1622 20.7568H48.4324V22.4865H50.1622V20.7568Z" fill="black"/>
<path d="M51.8919 20.7568H50.1622V22.4865H51.8919V20.7568Z" fill="black"/>
<path d="M58.8108 20.7568H57.0811V22.4865H58.8108V20.7568Z" fill="black"/>
<path d="M64 20.7568L62.2703 20.7568V22.4865H64V20.7568Z" fill="black"/>
<path d="M13.8378 22.4865H12.1081V24.2162H13.8378V22.4865Z" fill="black"/>
<path d="M17.2973 22.4865H15.5676V24.2162H17.2973V22.4865Z" fill="black"/>
<path d="M22.4865 22.4865L20.7568 22.4865V24.2162H22.4865L22.4865 22.4865Z" fill="black"/>
<path d="M31.1351 22.4865H29.4054V24.2162H31.1351V22.4865Z" fill="black"/>
<path d="M36.3243 22.4865H34.5946V24.2162H36.3243V22.4865Z" fill="black"/>
<path d="M41.5135 22.4865L39.7838 22.4865V24.2162H41.5135V22.4865Z" fill="black"/>
<path d="M44.973 22.4865H43.2432V24.2162H44.973V22.4865Z" fill="black"/>
<path d="M50.1622 22.4865H48.4324V24.2162H50.1622V22.4865Z" fill="black"/>
<path d="M51.8919 22.4865H50.1622V24.2162H51.8919V22.4865Z" fill="black"/>
<path d="M53.6216 22.4865L51.8919 22.4865V24.2162H53.6216V22.4865Z" fill="black"/>
<path d="M58.8108 22.4865H57.0811V24.2162H58.8108V22.4865Z" fill="black"/>
<path d="M60.5405 22.4865L58.8108 22.4865V24.2162H60.5405V22.4865Z" fill="black"/>
<path d="M62.2703 22.4865L60.5405 22.4865V24.2162H62.2703V22.4865Z" fill="black"/>
<path d="M64 22.4865H62.2703V24.2162H64V22.4865Z" fill="black"/>
<path d="M1.72973 24.2162H0V25.9459H1.72973V24.2162Z" fill="black"/>
<path d="M3.45946 24.2162H1.72973V25.9459H3.45946V24.2162Z" fill="black"/>
<path d="M6.91892 24.2162H5.18919V25.9459H6.91892V24.2162Z" fill="black"/>
<path d="M10.3784 24.2162H8.64865V25.9459H10.3784V24.2162Z" fill="black"/>
<path d="M12.1081 24.2162H10.3784V25.9459H12.1081V24.2162Z" fill="black"/>
<path d="M17.2973 24.2162H15.5676V25.9459H17.2973V24.2162Z" fill="black"/>
<path d="M29.4054 24.2162H27.6757V25.9459H29.4054L29.4054 24.2162Z" fill="black"/>
<path d="M31.1351 24.2162H29.4054L29.4054 25.9459H31.1351V24.2162Z" fill="black"/>
<path d="M32.8649 24.2162H31.1351V25.9459H32.8649V24.2162Z" fill="black"/>
<path d="M34.5946 24.2162H32.8649V25.9459H34.5946V24.2162Z" fill="black"/>
<path d="M36.3243 24.2162H34.5946V25.9459H36.3243V24.2162Z" fill="black"/>
<path d="M44.973 24.2162H43.2432V25.9459H44.973V24.2162Z" fill="black"/>
<path d="M46.7027 24.2162H44.973V25.9459H46.7027V24.2162Z" fill="black"/>
<path d="M51.8919 24.2162H50.1622V25.9459H51.8919V24.2162Z" fill="black"/>
<path d="M57.0811 24.2162H55.3514V25.9459H57.0811V24.2162Z" fill="black"/>
<path d="M1.72973 25.9459H0V27.6757H1.72973V25.9459Z" fill="black"/>
<path d="M6.91892 25.9459H5.18919V27.6757H6.91892V25.9459Z" fill="black"/>
<path d="M8.64865 25.9459H6.91892V27.6757H8.64865V25.9459Z" fill="black"/>
<path d="M10.3784 25.9459H8.64865V27.6757H10.3784V25.9459Z" fill="black"/>
<path d="M15.5676 25.9459L13.8378 25.9459V27.6757H15.5676V25.9459Z" fill="black"/>
<path d="M19.027 25.9459L17.2973 25.9459V27.6757H19.027V25.9459Z" fill="black"/>
<path d="M22.4865 25.9459H20.7568V27.6757H22.4865V25.9459Z" fill="black"/>
<path d="M24.2162 25.9459H22.4865V27.6757H24.2162V25.9459Z" fill="black"/>
<path d="M25.9459 25.9459H24.2162V27.6757H25.9459V25.9459Z" fill="black"/>
<path d="M34.5946 25.9459H32.8649V27.6757H34.5946V25.9459Z" fill="black"/>
<path d="M38.0541 25.9459L36.3243 25.9459V27.6757H38.0541V25.9459Z" fill="black"/>
<path d="M39.7838 25.9459H38.0541V27.6757H39.7838V25.9459Z" fill="black"/>
<path d="M46.7027 25.9459H44.973V27.6757H46.7027V25.9459Z" fill="black"/>
<path d="M50.1622 25.9459L48.4324 25.9459V27.6757H50.1622V25.9459Z" fill="black"/>
<path d="M51.8919 25.9459H50.1622V27.6757H51.8919V25.9459Z" fill="black"/>
<path d="M53.6216 25.9459L51.8919 25.9459V27.6757H53.6216V25.9459Z" fill="black"/>
<path d="M57.0811 25.9459H55.3514V27.6757H57.0811V25.9459Z" fill="black"/>
<path d="M62.2703 25.9459H60.5405V27.6757H62.2703V25.9459Z" fill="black"/>
<path d="M1.72973 27.6757H0V29.4054H1.72973V27.6757Z" fill="black"/>
<path d="M5.18919 27.6757L3.45946 27.6757V29.4054H5.18919V27.6757Z" fill="black"/>
<path d="M12.1081 27.6757L10.3784 27.6757V29.4054H12.1081V27.6757Z" fill="black"/>
<path d="M13.8378 27.6757L12.1081 27.6757V29.4054H13.8378V27.6757Z" fill="black"/>
<path d="M24.2162 27.6757H22.4865L22.4865 29.4054H24.2162V27.6757Z" fill="black"/>
<path d="M25.9459 27.6757H24.2162V29.4054H25.9459V27.6757Z" fill="black"/>
<path d="M27.6757 27.6757L25.9459 27.6757V29.4054H27.6757V27.6757Z" fill="black"/>
<path d="M29.4054 27.6757H27.6757V29.4054H29.4054V27.6757Z" fill="black"/>
<path d="M31.1351 27.6757H29.4054V29.4054H31.1351V27.6757Z" fill="black"/>
<path d="M32.8649 27.6757L31.1351 27.6757V29.4054H32.8649V27.6757Z" fill="black"/>
<path d="M34.5946 27.6757H32.8649V29.4054H34.5946V27.6757Z" fill="black"/>
<path d="M36.3243 27.6757H34.5946V29.4054H36.3243V27.6757Z" fill="black"/>
<path d="M38.0541 27.6757H36.3243V29.4054H38.0541V27.6757Z" fill="black"/>
<path d="M50.1622 27.6757H48.4324V29.4054H50.1622V27.6757Z" fill="black"/>
<path d="M51.8919 27.6757H50.1622V29.4054H51.8919V27.6757Z" fill="black"/>
<path d="M57.0811 27.6757H55.3514V29.4054H57.0811V27.6757Z" fill="black"/>
<path d="M58.8108 27.6757L57.0811 27.6757V29.4054H58.8108V27.6757Z" fill="black"/>
<path d="M60.5405 27.6757L58.8108 27.6757V29.4054H60.5405V27.6757Z" fill="black"/>
<path d="M62.2703 27.6757H60.5405V29.4054H62.2703V27.6757Z" fill="black"/>
<path d="M64 27.6757L62.2703 27.6757V29.4054H64V27.6757Z" fill="black"/>
<path d="M1.72973 29.4054H0V31.1351H1.72973V29.4054Z" fill="black"/>
<path d="M3.45946 29.4054H1.72973V31.1351H3.45946V29.4054Z" fill="black"/>
<path d="M5.18919 29.4054H3.45946V31.1351H5.18919V29.4054Z" fill="black"/>
<path d="M6.91892 29.4054L5.18919 29.4054V31.1351H6.91892V29.4054Z" fill="black"/>
<path d="M10.3784 29.4054L8.64865 29.4054V31.1351H10.3784V29.4054Z" fill="black"/>
<path d="M13.8378 29.4054H12.1081V31.1351H13.8378V29.4054Z" fill="black"/>
<path d="M15.5676 29.4054L13.8378 29.4054V31.1351H15.5676V29.4054Z" fill="black"/>
<path d="M17.2973 29.4054H15.5676V31.1351H17.2973V29.4054Z" fill="black"/>
<path d="M25.9459 29.4054H24.2162V31.1351H25.9459V29.4054Z" fill="black"/>
<path d="M29.4054 29.4054H27.6757L27.6757 31.1351H29.4054V29.4054Z" fill="black"/>
<path d="M32.8649 29.4054H31.1351L31.1351 31.1351H32.8649V29.4054Z" fill="black"/>
<path d="M38.0541 29.4054H36.3243V31.1351H38.0541V29.4054Z" fill="black"/>
<path d="M41.5135 29.4054H39.7838V31.1351H41.5135V29.4054Z" fill="black"/>
<path d="M43.2432 29.4054H41.5135V31.1351H43.2432V29.4054Z" fill="black"/>
<path d="M46.7027 29.4054H44.973V31.1351H46.7027V29.4054Z" fill="black"/>
<path d="M53.6216 29.4054L51.8919 29.4054V31.1351H53.6216V29.4054Z" fill="black"/>
<path d="M57.0811 29.4054H55.3514V31.1351H57.0811V29.4054Z" fill="black"/>
<path d="M60.5405 29.4054H58.8108V31.1351H60.5405V29.4054Z" fill="black"/>
<path d="M8.64865 31.1351H6.91892V32.8649H8.64865V31.1351Z" fill="black"/>
<path d="M10.3784 31.1351H8.64865V32.8649H10.3784V31.1351Z" fill="black"/>
<path d="M12.1081 31.1351H10.3784V32.8649H12.1081V31.1351Z" fill="black"/>
<path d="M20.7568 31.1351H19.027V32.8649H20.7568V31.1351Z" fill="black"/>
<path d="M25.9459 31.1351H24.2162V32.8649H25.9459V31.1351Z" fill="black"/>
<path d="M27.6757 31.1351H25.9459V32.8649H27.6757L27.6757 31.1351Z" fill="black"/>
<path d="M29.4054 31.1351H27.6757L27.6757 32.8649H29.4054V31.1351Z" fill="black"/>
<path d="M31.1351 31.1351H29.4054V32.8649H31.1351L31.1351 31.1351Z" fill="black"/>
<path d="M48.4324 31.1351L46.7027 31.1351V32.8649H48.4324V31.1351Z" fill="black"/>
<path d="M51.8919 31.1351L50.1622 31.1351V32.8649H51.8919V31.1351Z" fill="black"/>
<path d="M53.6216 31.1351H51.8919V32.8649H53.6216V31.1351Z" fill="black"/>
<path d="M55.3514 31.1351H53.6216V32.8649H55.3514V31.1351Z" fill="black"/>
<path d="M57.0811 31.1351H55.3514V32.8649H57.0811V31.1351Z" fill="black"/>
<path d="M58.8108 31.1351H57.0811V32.8649H58.8108V31.1351Z" fill="black"/>
<path d="M1.72973 32.8649H0V34.5946H1.72973V32.8649Z" fill="black"/>
<path d="M5.18919 32.8649H3.45946V34.5946H5.18919V32.8649Z" fill="black"/>
<path d="M15.5676 32.8649H13.8378V34.5946H15.5676V32.8649Z" fill="black"/>
<path d="M20.7568 32.8649H19.027V34.5946H20.7568V32.8649Z" fill="black"/>
<path d="M24.2162 32.8649H22.4865V34.5946H24.2162V32.8649Z" fill="black"/>
<path d="M25.9459 32.8649H24.2162V34.5946H25.9459V32.8649Z" fill="black"/>
<path d="M29.4054 32.8649H27.6757L27.6757 34.5946H29.4054V32.8649Z" fill="black"/>
<path d="M32.8649 32.8649H31.1351L31.1351 34.5946H32.8649V32.8649Z" fill="black"/>
<path d="M36.3243 32.8649H34.5946V34.5946H36.3243V32.8649Z" fill="black"/>
<path d="M38.0541 32.8649H36.3243V34.5946H38.0541V32.8649Z" fill="black"/>
<path d="M39.7838 32.8649H38.0541V34.5946H39.7838V32.8649Z" fill="black"/>
<path d="M43.2432 32.8649H41.5135V34.5946H43.2432V32.8649Z" fill="black"/>
<path d="M48.4324 32.8649H46.7027V34.5946H48.4324V32.8649Z" fill="black"/>
<path d="M51.8919 32.8649H50.1622V34.5946H51.8919V32.8649Z" fill="black"/>
<path d="M53.6216 32.8649H51.8919V34.5946H53.6216V32.8649Z" fill="black"/>
<path d="M55.3514 32.8649H53.6216V34.5946H55.3514V32.8649Z" fill="black"/>
<path d="M60.5405 32.8649H58.8108V34.5946H60.5405V32.8649Z" fill="black"/>
<path d="M64 32.8649H62.2703V34.5946H64V32.8649Z" fill="black"/>
<path d="M1.72973 34.5946H0V36.3243H1.72973V34.5946Z" fill="black"/>
<path d="M3.45946 34.5946H1.72973V36.3243H3.45946V34.5946Z" fill="black"/>
<path d="M5.18919 34.5946H3.45946V36.3243H5.18919V34.5946Z" fill="black"/>
<path d="M6.91892 34.5946H5.18919V36.3243H6.91892V34.5946Z" fill="black"/>
<path d="M12.1081 34.5946H10.3784V36.3243H12.1081V34.5946Z" fill="black"/>
<path d="M15.5676 34.5946H13.8378V36.3243H15.5676V34.5946Z" fill="black"/>
<path d="M17.2973 34.5946H15.5676V36.3243H17.2973V34.5946Z" fill="black"/>
<path d="M19.027 34.5946H17.2973V36.3243H19.027V34.5946Z" fill="black"/>
<path d="M20.7568 34.5946H19.027V36.3243H20.7568V34.5946Z" fill="black"/>
<path d="M24.2162 34.5946H22.4865V36.3243H24.2162V34.5946Z" fill="black"/>
<path d="M25.9459 34.5946H24.2162V36.3243H25.9459V34.5946Z" fill="black"/>
<path d="M38.0541 34.5946H36.3243V36.3243H38.0541V34.5946Z" fill="black"/>
<path d="M43.2432 34.5946H41.5135V36.3243H43.2432V34.5946Z" fill="black"/>
<path d="M44.973 34.5946H43.2432V36.3243H44.973V34.5946Z" fill="black"/>
<path d="M46.7027 34.5946H44.973V36.3243H46.7027V34.5946Z" fill="black"/>
<path d="M48.4324 34.5946H46.7027V36.3243H48.4324V34.5946Z" fill="black"/>
<path d="M50.1622 34.5946H48.4324V36.3243H50.1622V34.5946Z" fill="black"/>
<path d="M51.8919 34.5946H50.1622V36.3243H51.8919V34.5946Z" fill="black"/>
<path d="M55.3514 34.5946H53.6216V36.3243H55.3514V34.5946Z" fill="black"/>
<path d="M64 34.5946H62.2703V36.3243H64V34.5946Z" fill="black"/>
<path d="M1.72973 36.3243H0V38.0541H1.72973V36.3243Z" fill="black"/>
<path d="M3.45946 36.3243H1.72973V38.0541H3.45946V36.3243Z" fill="black"/>
<path d="M5.18919 36.3243H3.45946V38.0541H5.18919V36.3243Z" fill="black"/>
<path d="M6.91892 36.3243H5.18919V38.0541H6.91892V36.3243Z" fill="black"/>
<path d="M8.64865 36.3243H6.91892V38.0541H8.64865V36.3243Z" fill="black"/>
<path d="M15.5676 36.3243H13.8378V38.0541H15.5676V36.3243Z" fill="black"/>
<path d="M19.027 36.3243H17.2973V38.0541H19.027V36.3243Z" fill="black"/>
<path d="M24.2162 36.3243H22.4865V38.0541H24.2162V36.3243Z" fill="black"/>
<path d="M27.6757 36.3243H25.9459L25.9459 38.0541H27.6757V36.3243Z" fill="black"/>
<path d="M29.4054 36.3243H27.6757V38.0541H29.4054V36.3243Z" fill="black"/>
<path d="M31.1351 36.3243H29.4054V38.0541H31.1351V36.3243Z" fill="black"/>
<path d="M39.7838 36.3243H38.0541V38.0541H39.7838V36.3243Z" fill="black"/>
<path d="M43.2432 36.3243H41.5135V38.0541H43.2432V36.3243Z" fill="black"/>
<path d="M51.8919 36.3243H50.1622V38.0541H51.8919V36.3243Z" fill="black"/>
<path d="M55.3514 36.3243H53.6216V38.0541H55.3514V36.3243Z" fill="black"/>
<path d="M57.0811 36.3243H55.3514V38.0541H57.0811V36.3243Z" fill="black"/>
<path d="M60.5405 36.3243H58.8108V38.0541H60.5405V36.3243Z" fill="black"/>
<path d="M1.72973 38.0541H0V39.7838H1.72973V38.0541Z" fill="black"/>
<path d="M6.91892 38.0541H5.18919V39.7838H6.91892V38.0541Z" fill="black"/>
<path d="M12.1081 38.0541H10.3784V39.7838H12.1081V38.0541Z" fill="black"/>
<path d="M13.8378 38.0541H12.1081V39.7838H13.8378V38.0541Z" fill="black"/>
<path d="M15.5676 38.0541H13.8378V39.7838H15.5676V38.0541Z" fill="black"/>
<path d="M17.2973 38.0541H15.5676V39.7838H17.2973V38.0541Z" fill="black"/>
<path d="M34.5946 38.0541H32.8649V39.7838H34.5946V38.0541Z" fill="black"/>
<path d="M38.0541 38.0541H36.3243V39.7838H38.0541V38.0541Z" fill="black"/>
<path d="M39.7838 38.0541H38.0541V39.7838H39.7838V38.0541Z" fill="black"/>
<path d="M41.5135 38.0541H39.7838V39.7838H41.5135V38.0541Z" fill="black"/>
<path d="M43.2432 38.0541H41.5135V39.7838H43.2432V38.0541Z" fill="black"/>
<path d="M44.973 38.0541H43.2432V39.7838H44.973V38.0541Z" fill="black"/>
<path d="M46.7027 38.0541H44.973V39.7838H46.7027V38.0541Z" fill="black"/>
<path d="M62.2703 38.0541H60.5405V39.7838H62.2703V38.0541Z" fill="black"/>
<path d="M64 38.0541H62.2703V39.7838H64V38.0541Z" fill="black"/>
<path d="M1.72973 39.7838H0V41.5135H1.72973V39.7838Z" fill="black"/>
<path d="M3.45946 39.7838H1.72973V41.5135H3.45946V39.7838Z" fill="black"/>
<path d="M6.91892 39.7838H5.18919V41.5135H6.91892V39.7838Z" fill="black"/>
<path d="M13.8378 39.7838H12.1081V41.5135H13.8378V39.7838Z" fill="black"/>
<path d="M19.027 39.7838H17.2973V41.5135H19.027V39.7838Z" fill="black"/>
<path d="M22.4865 39.7838H20.7568V41.5135H22.4865V39.7838Z" fill="black"/>
<path d="M24.2162 39.7838H22.4865V41.5135H24.2162V39.7838Z" fill="black"/>
<path d="M25.9459 39.7838H24.2162V41.5135H25.9459V39.7838Z" fill="black"/>
<path d="M34.5946 39.7838H32.8649V41.5135H34.5946V39.7838Z" fill="black"/>
<path d="M38.0541 39.7838H36.3243V41.5135H38.0541V39.7838Z" fill="black"/>
<path d="M39.7838 39.7838H38.0541V41.5135H39.7838V39.7838Z" fill="black"/>
<path d="M41.5135 39.7838H39.7838V41.5135H41.5135V39.7838Z" fill="black"/>
<path d="M46.7027 39.7838H44.973V41.5135H46.7027V39.7838Z" fill="black"/>
<path d="M51.8919 39.7838H50.1622V41.5135H51.8919V39.7838Z" fill="black"/>
<path d="M53.6216 39.7838H51.8919V41.5135H53.6216V39.7838Z" fill="black"/>
<path d="M55.3514 39.7838H53.6216V41.5135H55.3514V39.7838Z" fill="black"/>
<path d="M57.0811 39.7838H55.3514V41.5135H57.0811V39.7838Z" fill="black"/>
<path d="M58.8108 39.7838H57.0811V41.5135H58.8108V39.7838Z" fill="black"/>
<path d="M60.5405 39.7838H58.8108V41.5135H60.5405V39.7838Z" fill="black"/>
<path d="M62.2703 39.7838H60.5405V41.5135H62.2703V39.7838Z" fill="black"/>
<path d="M64 39.7838H62.2703V41.5135H64V39.7838Z" fill="black"/>
<path d="M6.91892 41.5135H5.18919V43.2432H6.91892V41.5135Z" fill="black"/>
<path d="M10.3784 41.5135H8.64865V43.2432H10.3784V41.5135Z" fill="black"/>
<path d="M12.1081 41.5135H10.3784V43.2432H12.1081V41.5135Z" fill="black"/>
<path d="M13.8378 41.5135H12.1081V43.2432H13.8378V41.5135Z" fill="black"/>
<path d="M22.4865 41.5135H20.7568V43.2432H22.4865V41.5135Z" fill="black"/>
<path d="M27.6757 41.5135H25.9459L25.9459 43.2432H27.6757V41.5135Z" fill="black"/>
<path d="M29.4054 41.5135H27.6757V43.2432H29.4054V41.5135Z" fill="black"/>
<path d="M31.1351 41.5135H29.4054V43.2432H31.1351V41.5135Z" fill="black"/>
<path d="M32.8649 41.5135H31.1351V43.2432H32.8649V41.5135Z" fill="black"/>
<path d="M34.5946 41.5135H32.8649V43.2432H34.5946V41.5135Z" fill="black"/>
<path d="M36.3243 41.5135H34.5946V43.2432H36.3243V41.5135Z" fill="black"/>
<path d="M38.0541 41.5135H36.3243V43.2432H38.0541V41.5135Z" fill="black"/>
<path d="M41.5135 41.5135H39.7838V43.2432H41.5135V41.5135Z" fill="black"/>
<path d="M43.2432 41.5135H41.5135V43.2432H43.2432V41.5135Z" fill="black"/>
<path d="M48.4324 41.5135H46.7027V43.2432H48.4324V41.5135Z" fill="black"/>
<path d="M50.1622 41.5135H48.4324V43.2432H50.1622V41.5135Z" fill="black"/>
<path d="M51.8919 41.5135H50.1622V43.2432H51.8919V41.5135Z" fill="black"/>
<path d="M57.0811 41.5135H55.3514V43.2432H57.0811V41.5135Z" fill="black"/>
<path d="M58.8108 41.5135H57.0811V43.2432H58.8108V41.5135Z" fill="black"/>
<path d="M64 41.5135H62.2703V43.2432H64V41.5135Z" fill="black"/>
<path d="M3.45946 43.2432H1.72973V44.973H3.45946V43.2432Z" fill="black"/>
<path d="M5.18919 43.2432H3.45946V44.973H5.18919V43.2432Z" fill="black"/>
<path d="M6.91892 43.2432H5.18919V44.973H6.91892V43.2432Z" fill="black"/>
<path d="M31.1351 43.2432H29.4054L29.4054 44.973H31.1351V43.2432Z" fill="black"/>
<path d="M32.8649 43.2432H31.1351V44.973H32.8649V43.2432Z" fill="black"/>
<path d="M39.7838 43.2432H38.0541V44.973H39.7838V43.2432Z" fill="black"/>
<path d="M46.7027 43.2432H44.973V44.973H46.7027V43.2432Z" fill="black"/>
<path d="M51.8919 43.2432H50.1622V44.973H51.8919V43.2432Z" fill="black"/>
<path d="M53.6216 43.2432H51.8919V44.973H53.6216V43.2432Z" fill="black"/>
<path d="M58.8108 43.2432H57.0811V44.973H58.8108V43.2432Z" fill="black"/>
<path d="M1.72973 44.973H0V46.7027H1.72973V44.973Z" fill="black"/>
<path d="M3.45946 44.973H1.72973V46.7027H3.45946V44.973Z" fill="black"/>
<path d="M6.91892 44.973H5.18919V46.7027H6.91892V44.973Z" fill="black"/>
<path d="M8.64865 44.973H6.91892V46.7027H8.64865V44.973Z" fill="black"/>
<path d="M12.1081 44.973H10.3784V46.7027H12.1081V44.973Z" fill="black"/>
<path d="M17.2973 44.973H15.5676V46.7027H17.2973V44.973Z" fill="black"/>
<path d="M20.7568 44.973H19.027V46.7027H20.7568V44.973Z" fill="black"/>
<path d="M25.9459 44.973H24.2162V46.7027H25.9459V44.973Z" fill="black"/>
<path d="M27.6757 44.973H25.9459V46.7027H27.6757V44.973Z" fill="black"/>
<path d="M31.1351 44.973H29.4054V46.7027H31.1351V44.973Z" fill="black"/>
<path d="M39.7838 44.973H38.0541V46.7027H39.7838V44.973Z" fill="black"/>
<path d="M48.4324 44.973H46.7027V46.7027H48.4324V44.973Z" fill="black"/>
<path d="M50.1622 44.973H48.4324V46.7027H50.1622V44.973Z" fill="black"/>
<path d="M53.6216 44.973H51.8919V46.7027H53.6216V44.973Z" fill="black"/>
<path d="M5.18919 46.7027H3.45946V48.4324H5.18919V46.7027Z" fill="black"/>
<path d="M13.8378 46.7027H12.1081V48.4324H13.8378V46.7027Z" fill="black"/>
<path d="M17.2973 46.7027H15.5676V48.4324H17.2973V46.7027Z" fill="black"/>
<path d="M19.027 46.7027H17.2973V48.4324H19.027V46.7027Z" fill="black"/>
<path d="M20.7568 46.7027H19.027V48.4324H20.7568V46.7027Z" fill="black"/>
<path d="M22.4865 46.7027H20.7568V48.4324H22.4865V46.7027Z" fill="black"/>
<path d="M24.2162 46.7027H22.4865V48.4324H24.2162V46.7027Z" fill="black"/>
<path d="M25.9459 46.7027H24.2162V48.4324H25.9459V46.7027Z" fill="black"/>
<path d="M27.6757 46.7027H25.9459V48.4324H27.6757V46.7027Z" fill="black"/>
<path d="M29.4054 46.7027H27.6757V48.4324H29.4054L29.4054 46.7027Z" fill="black"/>
<path d="M31.1351 46.7027H29.4054L29.4054 48.4324H31.1351V46.7027Z" fill="black"/>
<path d="M32.8649 46.7027H31.1351V48.4324H32.8649V46.7027Z" fill="black"/>
<path d="M38.0541 46.7027H36.3243V48.4324H38.0541V46.7027Z" fill="black"/>
<path d="M39.7838 46.7027H38.0541V48.4324H39.7838V46.7027Z" fill="black"/>
<path d="M41.5135 46.7027H39.7838V48.4324H41.5135V46.7027Z" fill="black"/>
<path d="M44.973 46.7027H43.2432V48.4324H44.973V46.7027Z" fill="black"/>
<path d="M46.7027 46.7027H44.973V48.4324H46.7027V46.7027Z" fill="black"/>
<path d="M48.4324 46.7027H46.7027V48.4324H48.4324V46.7027Z" fill="black"/>
<path d="M57.0811 46.7027H55.3514V48.4324H57.0811V46.7027Z" fill="black"/>
<path d="M58.8108 46.7027H57.0811V48.4324H58.8108V46.7027Z" fill="black"/>
<path d="M60.5405 46.7027H58.8108V48.4324H60.5405V46.7027Z" fill="black"/>
<path d="M10.3784 48.4324H8.64865V50.1622H10.3784V48.4324Z" fill="black"/>
<path d="M12.1081 48.4324H10.3784V50.1622H12.1081V48.4324Z" fill="black"/>
<path d="M13.8378 48.4324H12.1081V50.1622H13.8378V48.4324Z" fill="black"/>
<path d="M15.5676 48.4324H13.8378V50.1622H15.5676V48.4324Z" fill="black"/>
<path d="M17.2973 48.4324H15.5676V50.1622H17.2973V48.4324Z" fill="black"/>
<path d="M19.027 48.4324H17.2973V50.1622H19.027V48.4324Z" fill="black"/>
<path d="M22.4865 48.4324H20.7568L20.7568 50.1622H22.4865V48.4324Z" fill="black"/>
<path d="M24.2162 48.4324H22.4865V50.1622H24.2162V48.4324Z" fill="black"/>
<path d="M27.6757 48.4324H25.9459L25.9459 50.1622H27.6757V48.4324Z" fill="black"/>
<path d="M29.4054 48.4324H27.6757V50.1622H29.4054V48.4324Z" fill="black"/>
<path d="M31.1351 48.4324H29.4054V50.1622H31.1351V48.4324Z" fill="black"/>
<path d="M32.8649 48.4324H31.1351V50.1622H32.8649V48.4324Z" fill="black"/>
<path d="M36.3243 48.4324H34.5946V50.1622H36.3243V48.4324Z" fill="black"/>
<path d="M38.0541 48.4324H36.3243V50.1622H38.0541V48.4324Z" fill="black"/>
<path d="M39.7838 48.4324H38.0541V50.1622H39.7838V48.4324Z" fill="black"/>
<path d="M41.5135 48.4324H39.7838V50.1622H41.5135V48.4324Z" fill="black"/>
<path d="M44.973 48.4324H43.2432V50.1622H44.973V48.4324Z" fill="black"/>
<path d="M46.7027 48.4324H44.973V50.1622H46.7027V48.4324Z" fill="black"/>
<path d="M48.4324 48.4324H46.7027V50.1622H48.4324V48.4324Z" fill="black"/>
<path d="M50.1622 48.4324H48.4324V50.1622H50.1622V48.4324Z" fill="black"/>
<path d="M51.8919 48.4324H50.1622V50.1622H51.8919V48.4324Z" fill="black"/>
<path d="M53.6216 48.4324H51.8919V50.1622H53.6216V48.4324Z" fill="black"/>
<path d="M55.3514 48.4324H53.6216V50.1622H55.3514V48.4324Z" fill="black"/>
<path d="M57.0811 48.4324H55.3514V50.1622H57.0811V48.4324Z" fill="black"/>
<path d="M62.2703 48.4324H60.5405V50.1622H62.2703V48.4324Z" fill="black"/>
<path d="M64 48.4324H62.2703V50.1622H64V48.4324Z" fill="black"/>
<path d="M19.027 50.1622H17.2973V51.8919H19.027V50.1622Z" fill="black"/>
<path d="M27.6757 50.1622H25.9459V51.8919H27.6757V50.1622Z" fill="black"/>
<path d="M31.1351 50.1622H29.4054L29.4054 51.8919H31.1351V50.1622Z" fill="black"/>
<path d="M43.2432 50.1622H41.5135V51.8919H43.2432V50.1622Z" fill="black"/>
<path d="M46.7027 50.1622H44.973V51.8919H46.7027V50.1622Z" fill="black"/>
<path d="M48.4324 50.1622H46.7027V51.8919H48.4324V50.1622Z" fill="black"/>
<path d="M50.1622 50.1622H48.4324V51.8919H50.1622V50.1622Z" fill="black"/>
<path d="M57.0811 50.1622H55.3514V51.8919H57.0811V50.1622Z" fill="black"/>
<path d="M58.8108 50.1622H57.0811V51.8919H58.8108V50.1622Z" fill="black"/>
<path d="M62.2703 50.1622H60.5405V51.8919H62.2703V50.1622Z" fill="black"/>
<path d="M64 50.1622H62.2703V51.8919H64V50.1622Z" fill="black"/>
<path d="M1.72973 51.8919H0V53.6216H1.72973V51.8919Z" fill="black"/>
<path d="M3.45946 51.8919H1.72973V53.6216H3.45946V51.8919Z" fill="black"/>
<path d="M5.18919 51.8919H3.45946V53.6216H5.18919V51.8919Z" fill="black"/>
<path d="M6.91892 51.8919H5.18919V53.6216H6.91892V51.8919Z" fill="black"/>
<path d="M8.64865 51.8919H6.91892V53.6216H8.64865V51.8919Z" fill="black"/>
<path d="M10.3784 51.8919H8.64865V53.6216H10.3784V51.8919Z" fill="black"/>
<path d="M12.1081 51.8919H10.3784V53.6216H12.1081V51.8919Z" fill="black"/>
<path d="M17.2973 51.8919H15.5676V53.6216H17.2973V51.8919Z" fill="black"/>
<path d="M19.027 51.8919H17.2973V53.6216H19.027V51.8919Z" fill="black"/>
<path d="M22.4865 51.8919H20.7568V53.6216H22.4865V51.8919Z" fill="black"/>
<path d="M24.2162 51.8919H22.4865V53.6216H24.2162V51.8919Z" fill="black"/>
<path d="M29.4054 51.8919H27.6757L27.6757 53.6216H29.4054L29.4054 51.8919Z" fill="black"/>
<path d="M31.1351 51.8919H29.4054L29.4054 53.6216H31.1351V51.8919Z" fill="black"/>
<path d="M36.3243 51.8919H34.5946V53.6216H36.3243V51.8919Z" fill="black"/>
<path d="M38.0541 51.8919H36.3243V53.6216H38.0541V51.8919Z" fill="black"/>
<path d="M39.7838 51.8919H38.0541V53.6216H39.7838V51.8919Z" fill="black"/>
<path d="M43.2432 51.8919H41.5135V53.6216H43.2432V51.8919Z" fill="black"/>
<path d="M44.973 51.8919H43.2432V53.6216H44.973V51.8919Z" fill="black"/>
<path d="M46.7027 51.8919H44.973V53.6216H46.7027V51.8919Z" fill="black"/>
<path d="M50.1622 51.8919H48.4324V53.6216H50.1622V51.8919Z" fill="black"/>
<path d="M53.6216 51.8919H51.8919V53.6216H53.6216V51.8919Z" fill="black"/>
<path d="M57.0811 51.8919H55.3514V53.6216H57.0811V51.8919Z" fill="black"/>
<path d="M62.2703 51.8919H60.5405V53.6216H62.2703V51.8919Z" fill="black"/>
<path d="M1.72973 53.6216H0V55.3514H1.72973V53.6216Z" fill="black"/>
<path d="M12.1081 53.6216H10.3784V55.3514H12.1081V53.6216Z" fill="black"/>
<path d="M15.5676 53.6216H13.8378V55.3514H15.5676V53.6216Z" fill="black"/>
<path d="M17.2973 53.6216H15.5676V55.3514H17.2973V53.6216Z" fill="black"/>
<path d="M19.027 53.6216H17.2973V55.3514H19.027V53.6216Z" fill="black"/>
<path d="M24.2162 53.6216H22.4865L22.4865 55.3514H24.2162V53.6216Z" fill="black"/>
<path d="M27.6757 53.6216H25.9459V55.3514H27.6757L27.6757 53.6216Z" fill="black"/>
<path d="M29.4054 53.6216H27.6757L27.6757 55.3514H29.4054V53.6216Z" fill="black"/>
<path d="M31.1351 53.6216H29.4054V55.3514H31.1351V53.6216Z" fill="black"/>
<path d="M32.8649 53.6216H31.1351V55.3514H32.8649V53.6216Z" fill="black"/>
<path d="M34.5946 53.6216H32.8649V55.3514H34.5946V53.6216Z" fill="black"/>
<path d="M36.3243 53.6216H34.5946V55.3514H36.3243V53.6216Z" fill="black"/>
<path d="M41.5135 53.6216H39.7838V55.3514H41.5135V53.6216Z" fill="black"/>
<path d="M44.973 53.6216H43.2432V55.3514H44.973V53.6216Z" fill="black"/>
<path d="M46.7027 53.6216H44.973V55.3514H46.7027V53.6216Z" fill="black"/>
<path d="M48.4324 53.6216H46.7027V55.3514H48.4324V53.6216Z" fill="black"/>
<path d="M50.1622 53.6216H48.4324V55.3514H50.1622V53.6216Z" fill="black"/>
<path d="M57.0811 53.6216H55.3514V55.3514H57.0811V53.6216Z" fill="black"/>
<path d="M60.5405 53.6216H58.8108V55.3514H60.5405V53.6216Z" fill="black"/>
<path d="M64 53.6216H62.2703V55.3514H64V53.6216Z" fill="black"/>
<path d="M1.72973 55.3514H0V57.0811H1.72973V55.3514Z" fill="black"/>
<path d="M5.18919 55.3514H3.45946V57.0811H5.18919V55.3514Z" fill="black"/>
<path d="M6.91892 55.3514H5.18919V57.0811H6.91892V55.3514Z" fill="black"/>
<path d="M8.64865 55.3514H6.91892V57.0811H8.64865V55.3514Z" fill="black"/>
<path d="M12.1081 55.3514H10.3784V57.0811H12.1081V55.3514Z" fill="black"/>
<path d="M19.027 55.3514H17.2973V57.0811H19.027V55.3514Z" fill="black"/>
<path d="M20.7568 55.3514H19.027V57.0811H20.7568V55.3514Z" fill="black"/>
<path d="M27.6757 55.3514H25.9459V57.0811H27.6757V55.3514Z" fill="black"/>
<path d="M41.5135 55.3514H39.7838V57.0811H41.5135V55.3514Z" fill="black"/>
<path d="M48.4324 55.3514H46.7027V57.0811H48.4324V55.3514Z" fill="black"/>
<path d="M50.1622 55.3514H48.4324V57.0811H50.1622V55.3514Z" fill="black"/>
<path d="M51.8919 55.3514H50.1622V57.0811H51.8919V55.3514Z" fill="black"/>
<path d="M53.6216 55.3514H51.8919V57.0811H53.6216V55.3514Z" fill="black"/>
<path d="M55.3514 55.3514H53.6216V57.0811H55.3514V55.3514Z" fill="black"/>
<path d="M57.0811 55.3514H55.3514V57.0811H57.0811V55.3514Z" fill="black"/>
<path d="M58.8108 55.3514H57.0811V57.0811H58.8108V55.3514Z" fill="black"/>
<path d="M60.5405 55.3514H58.8108V57.0811H60.5405V55.3514Z" fill="black"/>
<path d="M62.2703 55.3514H60.5405V57.0811H62.2703V55.3514Z" fill="black"/>
<path d="M1.72973 57.0811H0V58.8108H1.72973V57.0811Z" fill="black"/>
<path d="M5.18919 57.0811H3.45946V58.8108H5.18919V57.0811Z" fill="black"/>
<path d="M6.91892 57.0811H5.18919V58.8108H6.91892V57.0811Z" fill="black"/>
<path d="M8.64865 57.0811H6.91892V58.8108H8.64865V57.0811Z" fill="black"/>
<path d="M12.1081 57.0811H10.3784V58.8108H12.1081V57.0811Z" fill="black"/>
<path d="M17.2973 57.0811H15.5676V58.8108H17.2973V57.0811Z" fill="black"/>
<path d="M19.027 57.0811H17.2973V58.8108H19.027V57.0811Z" fill="black"/>
<path d="M24.2162 57.0811H22.4865V58.8108H24.2162V57.0811Z" fill="black"/>
<path d="M25.9459 57.0811H24.2162V58.8108H25.9459L25.9459 57.0811Z" fill="black"/>
<path d="M27.6757 57.0811H25.9459L25.9459 58.8108H27.6757V57.0811Z" fill="black"/>
<path d="M31.1351 57.0811H29.4054V58.8108H31.1351V57.0811Z" fill="black"/>
<path d="M34.5946 57.0811H32.8649V58.8108H34.5946V57.0811Z" fill="black"/>
<path d="M39.7838 57.0811H38.0541V58.8108H39.7838V57.0811Z" fill="black"/>
<path d="M41.5135 57.0811H39.7838V58.8108H41.5135V57.0811Z" fill="black"/>
<path d="M44.973 57.0811H43.2432V58.8108H44.973V57.0811Z" fill="black"/>
<path d="M46.7027 57.0811H44.973V58.8108H46.7027V57.0811Z" fill="black"/>
<path d="M48.4324 57.0811H46.7027V58.8108H48.4324V57.0811Z" fill="black"/>
<path d="M50.1622 57.0811H48.4324V58.8108H50.1622V57.0811Z" fill="black"/>
<path d="M58.8108 57.0811H57.0811V58.8108H58.8108V57.0811Z" fill="black"/>
<path d="M60.5405 57.0811H58.8108V58.8108H60.5405V57.0811Z" fill="black"/>
<path d="M64 57.0811H62.2703V58.8108H64V57.0811Z" fill="black"/>
<path d="M1.72973 58.8108H0V60.5405H1.72973V58.8108Z" fill="black"/>
<path d="M5.18919 58.8108H3.45946V60.5405H5.18919V58.8108Z" fill="black"/>
<path d="M6.91892 58.8108H5.18919V60.5405H6.91892V58.8108Z" fill="black"/>
<path d="M8.64865 58.8108H6.91892V60.5405H8.64865V58.8108Z" fill="black"/>
<path d="M12.1081 58.8108H10.3784V60.5405H12.1081V58.8108Z" fill="black"/>
<path d="M15.5676 58.8108H13.8378V60.5405H15.5676V58.8108Z" fill="black"/>
<path d="M19.027 58.8108H17.2973V60.5405H19.027V58.8108Z" fill="black"/>
<path d="M25.9459 58.8108H24.2162V60.5405H25.9459V58.8108Z" fill="black"/>
<path d="M31.1351 58.8108H29.4054V60.5405H31.1351V58.8108Z" fill="black"/>
<path d="M32.8649 58.8108H31.1351V60.5405H32.8649V58.8108Z" fill="black"/>
<path d="M39.7838 58.8108H38.0541V60.5405H39.7838V58.8108Z" fill="black"/>
<path d="M58.8108 58.8108H57.0811V60.5405H58.8108V58.8108Z" fill="black"/>
<path d="M1.72973 60.5405H0V62.2703H1.72973V60.5405Z" fill="black"/>
<path d="M12.1081 60.5405H10.3784V62.2703H12.1081V60.5405Z" fill="black"/>
<path d="M17.2973 60.5405H15.5676V62.2703H17.2973V60.5405Z" fill="black"/>
<path d="M27.6757 60.5405H25.9459L25.9459 62.2703H27.6757V60.5405Z" fill="black"/>
<path d="M29.4054 60.5405H27.6757V62.2703H29.4054L29.4054 60.5405Z" fill="black"/>
<path d="M31.1351 60.5405H29.4054L29.4054 62.2703H31.1351V60.5405Z" fill="black"/>
<path d="M36.3243 60.5405H34.5946V62.2703H36.3243V60.5405Z" fill="black"/>
<path d="M41.5135 60.5405H39.7838V62.2703H41.5135V60.5405Z" fill="black"/>
<path d="M50.1622 60.5405H48.4324V62.2703H50.1622V60.5405Z" fill="black"/>
<path d="M51.8919 60.5405H50.1622V62.2703H51.8919V60.5405Z" fill="black"/>
<path d="M53.6216 60.5405H51.8919V62.2703H53.6216V60.5405Z" fill="black"/>
<path d="M55.3514 60.5405H53.6216V62.2703H55.3514V60.5405Z" fill="black"/>
<path d="M57.0811 60.5405H55.3514V62.2703H57.0811V60.5405Z" fill="black"/>
<path d="M1.72973 62.2703H0V64H1.72973V62.2703Z" fill="black"/>
<path d="M3.45946 62.2703H1.72973V64H3.45946V62.2703Z" fill="black"/>
<path d="M5.18919 62.2703H3.45946V64H5.18919V62.2703Z" fill="black"/>
<path d="M6.91892 62.2703H5.18919V64H6.91892V62.2703Z" fill="black"/>
<path d="M8.64865 62.2703H6.91892V64H8.64865V62.2703Z" fill="black"/>
<path d="M10.3784 62.2703H8.64865V64H10.3784V62.2703Z" fill="black"/>
<path d="M12.1081 62.2703H10.3784V64H12.1081V62.2703Z" fill="black"/>
<path d="M15.5676 62.2703H13.8378V64H15.5676V62.2703Z" fill="black"/>
<path d="M17.2973 62.2703H15.5676V64H17.2973V62.2703Z" fill="black"/>
<path d="M19.027 62.2703H17.2973V64H19.027V62.2703Z" fill="black"/>
<path d="M22.4865 62.2703H20.7568V64H22.4865V62.2703Z" fill="black"/>
<path d="M24.2162 62.2703H22.4865V64H24.2162V62.2703Z" fill="black"/>
<path d="M25.9459 62.2703H24.2162V64H25.9459L25.9459 62.2703Z" fill="black"/>
<path d="M31.1351 62.2703H29.4054L29.4054 64H31.1351V62.2703Z" fill="black"/>
<path d="M32.8649 62.2703H31.1351V64H32.8649V62.2703Z" fill="black"/>
<path d="M38.0541 62.2703H36.3243V64H38.0541V62.2703Z" fill="black"/>
<path d="M39.7838 62.2703H38.0541V64H39.7838V62.2703Z" fill="black"/>
<path d="M41.5135 62.2703H39.7838V64H41.5135V62.2703Z" fill="black"/>
<path d="M44.973 62.2703H43.2432V64H44.973V62.2703Z" fill="black"/>
<path d="M46.7027 62.2703H44.973V64H46.7027V62.2703Z" fill="black"/>
<path d="M50.1622 62.2703H48.4324V64H50.1622V62.2703Z" fill="black"/>
<path d="M51.8919 62.2703H50.1622V64H51.8919V62.2703Z" fill="black"/>
<path d="M53.6216 62.2703H51.8919V64H53.6216V62.2703Z" fill="black"/>
<path d="M55.3514 62.2703H53.6216V64H55.3514V62.2703Z" fill="black"/>
<path d="M57.0811 62.2703H55.3514V64H57.0811V62.2703Z" fill="black"/>
<path d="M60.5405 62.2703H58.8108V64H60.5405V62.2703Z" fill="black"/>
<path d="M64 62.2703H62.2703V64H64V62.2703Z" fill="black"/>
<path d="M201.026 61.7839H77.974C75.1626 61.7839 73 59.6213 73 56.8099V27.3985C73 24.5872 75.3789 22.4246 77.974 22.4246H201.026C203.837 22.4246 206 24.5872 206 27.3985V57.0262C206 59.6213 203.837 61.7839 201.026 61.7839Z" fill="black"/>
<path d="M201.026 23.2896C203.405 23.2896 205.135 25.2359 205.135 27.3985V57.0262C205.135 59.405 203.189 61.1351 201.026 61.1351H77.974C75.5951 61.1351 73.865 59.1888 73.865 57.0262V27.3985C73.865 25.0197 75.8114 23.2896 77.974 23.2896H201.026V23.2896ZM201.026 22.4246H77.974C75.3789 22.4246 73 24.5872 73 27.3985V57.0262C73 59.8376 75.1626 62.0002 77.974 62.0002H201.026C203.837 62.0002 206 59.8376 206 57.0262V27.3985C206 24.5872 203.837 22.4246 201.026 22.4246Z" fill="#A6A5A5"/>
<path d="M140.254 43.8344C137.875 43.8344 136.145 45.5645 136.145 47.9434C136.145 50.3222 138.091 52.0523 140.254 52.0523C142.633 52.0523 144.363 50.3222 144.363 47.9434C144.363 45.5645 142.416 43.8344 140.254 43.8344ZM140.254 50.5385C138.956 50.5385 137.875 49.4572 137.875 47.9434C137.875 46.4296 138.956 45.3483 140.254 45.3483C141.551 45.3483 142.633 46.4296 142.633 47.9434C142.633 49.4572 141.335 50.5385 140.254 50.5385ZM130.955 43.8344C128.576 43.8344 126.846 45.5645 126.846 47.9434C126.846 50.3222 128.792 52.0523 130.955 52.0523C133.333 52.0523 135.064 50.3222 135.064 47.9434C135.28 45.5645 133.333 43.8344 130.955 43.8344ZM130.955 50.5385C129.657 50.5385 128.576 49.4572 128.576 47.9434C128.576 46.4296 129.657 45.3483 130.955 45.3483C132.252 45.3483 133.333 46.4296 133.333 47.9434C133.333 49.4572 132.252 50.5385 130.955 50.5385ZM120.142 45.132V46.8621H124.467C124.251 47.9434 124.034 48.5922 123.602 49.0247C122.737 49.6735 121.872 50.5385 120.142 50.5385C117.546 50.5385 115.384 48.3759 115.384 45.7808C115.384 43.1857 117.33 41.0231 120.142 41.0231C121.655 41.0231 122.52 41.6718 123.385 42.3206L124.683 41.0231C123.602 39.9417 122.304 39.293 120.142 39.293C116.465 39.293 113.438 42.1044 113.438 45.7808C113.438 49.4572 116.465 52.2686 120.142 52.2686C122.088 52.2686 123.602 51.6198 124.683 50.5385C125.764 49.4572 126.197 47.7271 126.197 46.4296C126.197 45.997 126.197 45.5645 126.197 45.3483H120.142V45.132ZM164.691 46.4296C164.259 45.5645 163.177 43.8344 161.015 43.8344C158.852 43.8344 157.122 45.5645 157.122 47.9434C157.122 50.3222 158.852 52.0523 161.231 52.0523C163.177 52.0523 164.259 50.971 164.691 50.106L163.177 49.2409C162.745 49.8897 162.096 50.3222 161.015 50.3222C160.15 50.3222 159.501 49.8897 159.068 49.0247L164.691 46.6458V46.4296ZM159.068 47.9434C159.068 46.4296 160.366 45.5645 161.231 45.5645C161.88 45.5645 162.529 45.997 162.745 46.4296L159.068 47.9434ZM154.527 52.0523H156.473V39.7255H154.527V52.0523ZM151.499 44.6995C151.067 44.267 150.202 43.8344 149.337 43.8344C147.174 43.8344 145.228 45.7808 145.228 47.9434C145.228 50.3222 147.174 52.0523 149.337 52.0523C150.418 52.0523 151.067 51.6198 151.499 51.1873V51.8361C151.499 53.3499 150.634 54.2149 149.337 54.2149C148.255 54.2149 147.607 53.3499 147.174 52.7011L145.66 53.3499C146.093 54.4312 147.39 55.7287 149.337 55.7287C151.499 55.7287 153.229 54.4312 153.229 51.4035V44.0507H151.499V44.6995ZM149.337 50.5385C148.039 50.5385 146.958 49.4572 146.958 47.9434C146.958 46.4296 148.039 45.3483 149.337 45.3483C150.634 45.3483 151.499 46.4296 151.499 47.9434C151.499 49.4572 150.634 50.5385 149.337 50.5385ZM173.342 39.7255H169.016V52.0523H170.746V47.2946H173.342C175.288 47.2946 177.451 45.7808 177.451 43.4019C177.451 41.023 175.288 39.7255 173.342 39.7255ZM173.342 45.5645H170.746V41.2393H173.342C174.639 41.2393 175.504 42.3206 175.504 43.4019C175.504 44.4832 174.639 45.5645 173.342 45.5645ZM184.803 43.8344C183.506 43.8344 181.992 44.4832 181.559 45.7808L183.29 46.4296C183.722 45.7808 184.371 45.5645 185.02 45.5645C185.885 45.5645 186.966 46.2133 186.966 47.0783V47.2946C186.533 47.0783 185.885 46.8621 185.02 46.8621C183.29 46.8621 181.559 47.7271 181.559 49.6735C181.559 51.4035 183.073 52.4848 184.587 52.4848C185.885 52.4848 186.533 51.8361 186.966 51.1873V52.0523H188.696V47.2946C188.48 45.132 186.75 43.8344 184.803 43.8344ZM184.587 50.5385C183.938 50.5385 183.073 50.3222 183.073 49.4572C183.073 48.5922 184.155 48.1596 185.02 48.1596C185.885 48.1596 186.101 48.3759 186.75 48.5922C186.533 49.6735 185.452 50.5385 184.587 50.5385ZM194.968 44.0507L192.805 49.4572L190.642 44.0507H188.696L191.94 51.4035L189.994 55.5125H191.94L196.914 43.8344H194.968V44.0507ZM178.316 52.0523H180.046V39.7255H178.316V52.0523Z" fill="white"/>
<path d="M83.3798 29.7773C83.1635 29.9936 82.9473 30.6424 82.9473 31.0749V52.9172C82.9473 53.566 83.1635 53.9985 83.3798 54.2147L95.4904 42.1042V41.8879L83.3798 29.7773Z" fill="#5BC8F3"/>
<path d="M99.6009 46.2132L95.4919 42.1043V41.888L99.6009 37.7791L104.359 40.5904C105.656 41.4555 105.656 42.753 104.359 43.4018L99.6009 46.2132Z" fill="url(#paint0_linear_11557_52983)"/>
<path d="M99.8166 46.2132L95.7077 42.1042L83.3809 54.4311C83.8134 54.8636 84.6784 54.8636 85.3272 54.4311L99.8166 46.2132Z" fill="url(#paint1_linear_11557_52983)"/>
<path d="M99.8152 37.9952L85.542 29.7773C84.677 29.3448 84.0282 29.3448 83.5957 29.7773L95.9225 42.1041L99.8152 37.9952Z" fill="url(#paint2_linear_11557_52983)"/>
<path d="M116.034 34.9677H115.385V29.9938H113.871V29.345H117.764V29.9938H116.25V34.9677H116.034Z" fill="white" stroke="white" stroke-width="0.2" stroke-miterlimit="10"/>
<path d="M118.846 33.2376L118.197 34.9676H117.549L119.279 29.5611H120.144L121.874 34.9676H121.225L120.792 33.2376H118.846ZM120.576 32.805L120.144 31.2912C119.927 30.8587 119.927 30.6424 119.927 30.4262C119.927 30.6424 119.711 31.075 119.711 31.2912L119.279 32.805H120.576ZM119.495 29.3449C119.711 28.9124 119.927 28.9124 119.927 28.4798C119.927 28.2636 119.711 28.2636 119.711 28.2636C119.495 28.2636 119.495 28.4798 119.279 28.4798L119.062 28.2636C119.279 28.0473 119.495 27.8311 119.927 27.8311C120.36 27.8311 120.576 28.0473 120.576 28.4798C120.576 28.9124 120.144 28.9124 119.927 29.3449H119.495Z" fill="white" stroke="white" stroke-width="0.2" stroke-miterlimit="10"/>
<path d="M122.737 34.9677V29.345H123.385V34.9677H122.737V34.9677Z" fill="white" stroke="white" stroke-width="0.2" stroke-miterlimit="10"/>
<path d="M126.416 34.9677V29.345H127.281L130.092 33.6702V32.5889V29.345H130.741V34.9677H130.092L127.065 30.4263V31.5076V34.9677H126.416V34.9677Z" fill="white" stroke="white" stroke-width="0.2" stroke-miterlimit="10"/>
<path d="M136.578 32.1564C136.578 33.8865 135.497 34.9678 134.199 34.9678C132.902 34.9678 131.82 33.8865 131.82 32.3727C131.82 30.6426 132.902 29.5613 134.199 29.5613C135.713 29.5613 136.578 30.6426 136.578 32.1564ZM132.469 32.3727C132.469 33.454 133.118 34.5353 134.199 34.5353C135.28 34.5353 135.929 33.454 135.929 32.3727C135.929 31.2914 135.28 30.2101 134.199 30.2101C133.118 29.9938 132.469 31.0751 132.469 32.3727ZM134.415 28.48L135.28 29.345H134.632L134.199 28.6962L133.55 29.345H132.902L133.767 28.48H134.415V28.48ZM133.767 36.0491C133.767 35.8328 133.983 35.6166 134.199 35.6166C134.415 35.6166 134.632 35.8328 134.632 36.0491C134.632 36.2653 134.415 36.4816 134.199 36.4816C133.983 36.2653 133.767 36.0491 133.767 36.0491Z" fill="white" stroke="white" stroke-width="0.2" stroke-miterlimit="10"/>
<path d="M137.662 34.9677V29.345H138.311V34.9677H137.662V34.9677Z" fill="white" stroke="white" stroke-width="0.2" stroke-miterlimit="10"/>
<path d="M141.121 34.9677V29.345H142.851C143.716 29.345 144.365 29.5612 145.014 30.21C145.446 30.6425 145.879 31.5076 145.879 32.1564C145.879 33.0214 145.663 33.6702 145.014 34.1027C144.581 34.5352 143.716 34.9677 142.851 34.9677H141.121V34.9677ZM141.986 34.319H143.067C143.716 34.319 144.149 34.1027 144.581 33.6702C145.014 33.2377 145.23 32.8051 145.23 32.1564C145.23 31.5076 145.014 31.0751 144.581 30.6425C144.149 30.21 143.716 29.9938 143.067 29.9938H141.986V34.319Z" fill="white" stroke="white" stroke-width="0.2" stroke-miterlimit="10"/>
<path d="M148.688 34.9677C148.039 34.9677 147.607 34.7515 147.174 34.319C146.742 33.8864 146.525 33.4539 146.525 32.8051V29.345H147.174V33.0214C147.174 33.4539 147.39 33.8864 147.607 34.1027C147.823 34.319 148.255 34.5352 148.688 34.5352C149.121 34.5352 149.553 34.319 149.769 34.1027C149.986 33.8864 150.202 33.4539 150.202 33.0214V29.345H150.851V32.8051C150.851 33.4539 150.634 34.1027 150.202 34.319C149.986 34.7515 149.337 34.9677 148.688 34.9677Z" fill="white" stroke="white" stroke-width="0.2" stroke-miterlimit="10"/>
<path d="M152.148 34.9677V29.345H153.013L155.825 33.6702V32.5889V29.345H156.474V34.9677H155.825L153.013 30.4263V31.5076V34.9677H152.148V34.9677Z" fill="white" stroke="white" stroke-width="0.2" stroke-miterlimit="10"/>
<path d="M163.177 32.3726C163.177 33.2376 162.961 33.8864 162.528 34.3189C162.096 34.9677 161.231 35.1839 160.366 35.1839C159.5 35.1839 158.852 34.9677 158.203 34.3189C157.554 33.6701 157.338 33.0213 157.338 32.1563C157.338 31.2913 157.554 30.6425 158.203 29.9937C158.852 29.3449 159.5 29.1287 160.366 29.1287C160.798 29.1287 161.231 29.1287 161.447 29.3449C161.879 29.5612 162.096 29.7774 162.312 29.9937L161.879 30.4262C161.447 29.9937 161.014 29.7774 160.366 29.7774C159.717 29.7774 159.284 29.9937 158.852 30.4262C158.419 30.8587 158.203 31.2913 158.203 32.1563C158.203 32.8051 158.419 33.4539 158.852 33.8864C159.284 34.3189 159.717 34.5352 160.366 34.5352C161.014 34.5352 161.447 34.3189 161.879 33.8864C162.096 33.6701 162.312 33.2376 162.312 32.8051H160.366V31.94H163.177C163.177 32.1563 163.177 32.1563 163.177 32.3726Z" fill="white" stroke="white" stroke-width="0.2" stroke-miterlimit="10"/>
<path d="M167.721 34.9677H167.072V29.9938H165.559V29.345H169.451V29.9938H167.937V34.9677H167.721Z" fill="white" stroke="white" stroke-width="0.2" stroke-miterlimit="10"/>
<path d="M170.1 34.9677V29.345H172.046C172.478 29.345 172.911 29.5612 173.344 29.7775C173.776 29.9938 173.776 30.4263 173.776 31.0751C173.776 31.5076 173.56 31.7238 173.344 32.1564C173.127 32.3726 172.695 32.5889 172.478 32.8051L173.992 35.184H173.127L171.613 32.8051H170.748V35.184H170.1V34.9677ZM170.748 31.9401H171.83C172.046 31.9401 172.262 31.9401 172.478 31.7238C172.695 31.5076 172.695 31.2913 172.695 31.0751C172.695 30.8588 172.695 30.6425 172.478 30.4263C172.262 30.21 172.046 30.21 171.83 30.21H170.532V31.9401H170.748Z" fill="white" stroke="white" stroke-width="0.2" stroke-miterlimit="10"/>
<path d="M178.099 29.9937H175.504V31.7237H177.883V32.3725H175.504V34.1026H178.099V34.7514H174.855V29.3449H178.099V29.9937ZM175.288 28.6961L176.153 27.8311H176.802L177.667 28.6961H176.802L176.369 28.2636L175.937 28.6961H175.288Z" fill="white" stroke="white" stroke-width="0.2" stroke-miterlimit="10"/>
<path d="M179.18 34.9677V29.345H180.045L182.856 33.6702V32.5889V29.345H183.505V34.9677H182.856L180.045 30.4263V31.5076V34.9677H179.18V34.9677Z" fill="white" stroke="white" stroke-width="0.2" stroke-miterlimit="10"/>
<defs>
<linearGradient id="paint0_linear_11557_52983" x1="103.71" y1="42.112" x2="79.9119" y2="42.112" gradientUnits="userSpaceOnUse">
<stop stop-color="#FFDF00"/>
<stop offset="0.4087" stop-color="#FBBC0E"/>
<stop offset="0.7754" stop-color="#F9A418"/>
<stop offset="1" stop-color="#F89B1C"/>
</linearGradient>
<linearGradient id="paint1_linear_11557_52983" x1="97.5338" y1="44.3691" x2="75.15" y2="66.7527" gradientUnits="userSpaceOnUse">
<stop stop-color="#EE4447"/>
<stop offset="1" stop-color="#C5166C"/>
</linearGradient>
<linearGradient id="paint2_linear_11557_52983" x1="75.0489" y1="17.3706" x2="93.3248" y2="35.6466" gradientUnits="userSpaceOnUse">
<stop stop-color="#269E6F"/>
<stop offset="0.05089" stop-color="#2BA06F"/>
<stop offset="0.4663" stop-color="#53B26B"/>
<stop offset="0.7971" stop-color="#6BBD69"/>
<stop offset="1" stop-color="#74C168"/>
</linearGradient>
</defs>
</svg>
