<svg width="36" height="25" viewBox="0 0 36 25" fill="none" xmlns="http://www.w3.org/2000/svg">
<path fill-rule="evenodd" clip-rule="evenodd" d="M18.0036 0C27.9396 0 36 5.56214 36 12.4343C36 19.3064 27.9324 24.8686 18.0036 24.8686C8.07477 24.8686 0 19.2993 0 12.4343C0 5.5693 8.05329 0 18.0036 0Z" fill="white"/>
<path fill-rule="evenodd" clip-rule="evenodd" d="M18.0034 1.0238C27.4598 1.0238 35.1265 6.13496 35.1265 12.4344C35.1265 18.7339 27.4526 23.845 18.0034 23.845C8.55422 23.845 0.873169 18.7339 0.873169 12.4344C0.873169 6.13496 8.5399 1.0238 18.0034 1.0238ZM18.0034 1.0238C25.6272 1.0238 31.8193 6.13496 31.8193 12.4344C31.8193 18.7339 25.62 23.845 18.0034 23.845C10.3868 23.845 4.18755 18.7339 4.18755 12.4344C4.18755 6.13496 10.3653 1.0238 18.0034 1.0238Z" fill="#0071BC" stroke="#0071BC" stroke-width="0.322132" stroke-miterlimit="2.61"/>
<path fill-rule="evenodd" clip-rule="evenodd" d="M17.4094 8.4756V5.17554C14.4223 3.98136 11.0905 3.98136 8.10339 5.17554V19.6357C11.1762 18.9196 14.3724 18.9196 17.4452 19.6357V8.4756H17.4094Z" fill="white"/>
<path d="M17.4094 8.4756V5.17554C14.4223 3.98136 11.0905 3.98136 8.10339 5.17554V19.6357C11.1762 18.9196 14.3724 18.9196 17.4452 19.6357V11.7613H15.7988" stroke="#A25641" stroke-width="0.637105" stroke-miterlimit="2.61"/>
<path fill-rule="evenodd" clip-rule="evenodd" d="M18.5833 10.1006V5.17554C21.5703 3.98136 24.9022 3.98136 27.8893 5.17554V19.6357C24.828 18.9251 21.6446 18.9251 18.5833 19.6357V10.1006Z" fill="white" stroke="#A25641" stroke-width="0.637105" stroke-miterlimit="2.61"/>
<path d="M22.22 18.0608H21.9695V16.171H22.22V16.8868H22.5708V16.171H22.8213V18.068H22.5708V17.1875H22.22V18.0608ZM23.6517 17.345H23.9023V17.4595C23.9122 17.607 23.8851 17.7546 23.8235 17.889C23.7972 17.9441 23.7555 17.9903 23.7033 18.0221C23.6512 18.0538 23.591 18.0698 23.53 18.068C23.4745 18.0726 23.4187 18.0647 23.3667 18.0449C23.3147 18.0251 23.2677 17.9938 23.2294 17.9534C23.1615 17.8639 23.1194 17.7574 23.1077 17.6456C23.0975 17.4955 23.0975 17.3448 23.1077 17.1947V16.9584C23.0988 16.7554 23.123 16.5523 23.1793 16.3571C23.2071 16.2825 23.2585 16.2191 23.3257 16.1765C23.3929 16.1338 23.4722 16.1143 23.5515 16.1209C23.6038 16.1192 23.6558 16.13 23.7031 16.1524C23.7504 16.1748 23.7917 16.2082 23.8235 16.2497C23.8938 16.3552 23.9266 16.4813 23.9166 16.6077V16.7508H23.6732C23.6732 16.6077 23.6732 16.5361 23.6732 16.5289C23.6732 16.5218 23.6231 16.4001 23.5658 16.4001C23.5086 16.4001 23.4441 16.4502 23.4155 16.5432C23.4025 16.631 23.4025 16.7203 23.4155 16.8081V17.4094C23.4058 17.495 23.4058 17.5815 23.4155 17.6671C23.4155 17.7673 23.4942 17.8174 23.573 17.8174C23.6517 17.8174 23.6732 17.7602 23.6875 17.6456C23.6932 17.5574 23.6932 17.469 23.6875 17.3808L23.6517 17.345ZM24.3676 17.4309V18.025H24.117V16.171H24.5179L24.6539 17.0515C24.6539 17.1088 24.6539 17.1732 24.6539 17.2519C24.661 17.3305 24.661 17.4096 24.6539 17.4881C24.6539 17.4022 24.6539 17.3235 24.6539 17.2448C24.6505 17.1804 24.6505 17.1159 24.6539 17.0515L24.8615 16.171H25.2624V18.068H25.0118V17.0372C25.0118 16.6148 25.0118 16.3786 25.0118 16.3213L24.7398 18.0465H24.5823L24.3175 16.3213C24.3175 16.4573 24.3175 16.6005 24.3175 16.7437C24.3175 17.166 24.3175 17.4022 24.3175 17.4595L24.3676 17.4309ZM26.0856 17.4309V16.171H26.3362V17.4881C26.3484 17.6504 26.3188 17.813 26.2503 17.9606C26.212 18.0127 26.1609 18.054 26.1019 18.0803C26.0429 18.1067 25.9781 18.1172 25.9138 18.1109C25.8484 18.1178 25.7824 18.1076 25.7221 18.0812C25.6619 18.0548 25.6095 18.0133 25.5702 17.9606C25.5017 17.813 25.4721 17.6504 25.4843 17.4881V16.171H25.7348V17.4595C25.7264 17.5594 25.7411 17.6598 25.7778 17.753C25.7913 17.7766 25.8113 17.7959 25.8354 17.8086C25.8595 17.8213 25.8867 17.8268 25.9138 17.8246C25.9477 17.8268 25.9811 17.8163 26.0076 17.7951C26.0341 17.7739 26.0517 17.7436 26.057 17.7101C26.0717 17.6272 26.0717 17.5424 26.057 17.4595L26.0856 17.4309ZM26.8015 17.7602H27.367V18.0394H26.5294V16.171H27.3455V16.4502H26.78V16.8868H27.3097V17.166H26.78V17.753L26.8015 17.7602Z" fill="#00A651"/>
<path fill-rule="evenodd" clip-rule="evenodd" d="M22.4489 13.3075L22.7926 13.3577C22.9451 13.3661 23.0981 13.3661 23.2507 13.3577C23.6185 13.357 23.9846 13.3064 24.3388 13.2073C24.7071 13.1082 25.0591 12.9563 25.3839 12.7563C25.6959 12.5647 25.9741 12.3229 26.2071 12.0405C26.4722 11.7204 26.6804 11.3572 26.8228 10.9667C26.9865 10.5073 27.0689 10.0228 27.0662 9.53503C27.0656 9.13747 27.0077 8.74208 26.8944 8.36104C26.7979 8.04474 26.653 7.7453 26.4649 7.47338C26.3016 7.23971 26.1065 7.03007 25.885 6.8506C25.7 6.70325 25.4952 6.58275 25.2765 6.49267C25.0676 6.39988 24.8492 6.33027 24.6251 6.28507C24.4244 6.24161 24.2212 6.21054 24.0167 6.19202H23.5227H21.862H21.0817H20.2083H19.4424V13.3505H21.5899V9.96454C21.5899 9.4706 21.5899 9.05541 21.5899 8.7118C21.5899 8.3682 21.5899 8.09617 21.5899 7.87426C21.5899 7.65235 21.5899 7.48054 21.5899 7.35169C21.597 7.29109 21.6165 7.23261 21.6472 7.17988C21.658 7.14072 21.6805 7.10577 21.7116 7.07967C21.7703 7.05105 21.8331 7.03173 21.8977 7.0224H22.1197H22.2986C22.7794 7.01296 23.2523 7.14489 23.6587 7.4018C24.0131 7.6613 24.2862 8.01638 24.4462 8.42546C24.6402 8.92513 24.7374 9.45716 24.7325 9.99317C24.7477 10.4993 24.6701 11.004 24.5034 11.4821C24.3623 11.8449 24.1122 12.155 23.7876 12.3698C23.6453 12.4582 23.491 12.5257 23.3294 12.5702C23.1528 12.6215 22.9693 12.6456 22.7854 12.6418C22.6686 12.65 22.5514 12.65 22.4346 12.6418H22.2127C22.1872 12.6613 22.1695 12.6892 22.1626 12.7206C22.1558 12.7584 22.1558 12.7972 22.1626 12.8351C22.1708 12.8922 22.1877 12.9477 22.2127 12.9997C22.2427 13.0741 22.2786 13.1459 22.3201 13.2145C22.354 13.2759 22.3975 13.3315 22.4489 13.3791V13.3075ZM19.4424 13.7943V14.2811H21.5899V13.7943H19.4424ZM19.4424 14.6605V15.1473H21.5899V14.6605H19.4424ZM19.4424 15.5338V17.982H19.5856H20.5162H21.232H21.5828V16.128C21.5828 15.9562 21.5828 15.7701 21.5828 15.5625L19.4424 15.5338Z" fill="#00A651"/>
<path fill-rule="evenodd" clip-rule="evenodd" d="M9.78568 14.4888C9.72568 14.4663 9.65956 14.4663 9.59956 14.4888C9.51371 14.5035 9.42971 14.5275 9.34901 14.5604C9.28771 14.588 9.23377 14.6297 9.19153 14.6821C9.19153 14.8181 9.19153 14.997 9.2488 15.2261C9.30606 15.4552 9.31322 15.6914 9.34901 15.9419C9.38481 16.1925 9.44207 16.4574 9.48502 16.7007C9.52798 16.9441 9.58524 17.1589 9.62819 17.3378C9.65361 17.4618 9.6945 17.582 9.74989 17.6958C9.95037 17.807 10.1614 17.8981 10.3798 17.9678C10.686 18.0719 10.9995 18.1532 11.3176 18.2112C11.6909 18.2781 12.0694 18.3116 12.4486 18.3114C13.0572 18.3193 13.6626 18.2225 14.2383 18.0251C14.7253 17.8527 15.1731 17.585 15.5554 17.2376C15.9031 16.9105 16.1765 16.5126 16.3572 16.0708C16.4317 15.9021 16.4916 15.7272 16.5361 15.5482H14.5461C14.5534 15.6531 14.5534 15.7583 14.5461 15.8632C14.5577 16.1941 14.4759 16.5216 14.3098 16.8081C14.1671 17.0463 13.9582 17.2378 13.7085 17.3593C13.4566 17.4814 13.1795 17.5427 12.8996 17.5383C12.7029 17.5388 12.5064 17.522 12.3126 17.4882C12.1138 17.4515 11.9195 17.3939 11.7328 17.3164C11.5476 17.2442 11.374 17.1453 11.2174 17.0229C10.8798 16.7518 10.5999 16.4159 10.3942 16.035C10.1301 15.5392 9.92122 15.0159 9.77136 14.4745L9.78568 14.4888ZM16.6077 15.2046C16.6188 15.0426 16.6188 14.8799 16.6077 14.7178H14.2168C14.3218 14.867 14.4038 15.0311 14.4602 15.2046H16.6077ZM16.6077 14.3384C16.5937 14.1744 16.5673 14.0117 16.529 13.8517H13.3291L13.458 13.9519C13.6106 14.0699 13.7541 14.1991 13.8875 14.3384H16.6077ZM16.4001 13.4651C16.257 13.1095 16.0482 12.7841 15.7845 12.5059C15.4837 12.1912 15.1474 11.9125 14.7823 11.6755C14.5461 11.518 14.317 11.3677 14.0665 11.2317L13.3936 10.8093C13.1716 10.6733 12.9354 10.5158 12.6777 10.344C12.4496 10.1821 12.2407 9.99475 12.0549 9.78565C11.8865 9.60271 11.7552 9.38876 11.6684 9.15571C11.5787 8.89601 11.5421 8.62091 11.561 8.3468C11.5586 8.04482 11.6246 7.74622 11.7543 7.47346C11.8804 7.21297 12.0761 6.99246 12.3198 6.83636C12.5846 6.66732 12.8933 6.58017 13.2074 6.58581C13.464 6.5805 13.7199 6.61429 13.9662 6.68603C14.1969 6.75244 14.4131 6.86172 14.6033 7.00816C14.7498 7.1235 14.8715 7.26714 14.9613 7.43051C15.0707 7.63927 15.1548 7.86036 15.2118 8.08909C15.2887 8.40779 15.3485 8.73039 15.3908 9.05549C15.439 9.09004 15.4962 9.10993 15.5554 9.11276C15.6386 9.12339 15.7228 9.12339 15.806 9.11276C15.8679 9.10657 15.9271 9.08437 15.9778 9.04833C15.9778 8.48281 16.0422 7.9674 16.0995 7.49494C16.1567 7.02248 16.214 6.61445 16.2856 6.26368C16.0064 6.26368 15.7344 6.18494 15.448 6.13483C15.1617 6.08472 14.8682 6.02745 14.5318 5.9845C14.1445 5.9386 13.7548 5.91708 13.3649 5.92007C12.8788 5.91526 12.3951 5.99022 11.9332 6.14199C11.5023 6.28196 11.1033 6.50578 10.7592 6.80057C10.416 7.09494 10.1422 7.46164 9.95748 7.87434C9.75939 8.32541 9.65935 8.8134 9.66399 9.30603C9.6568 9.74268 9.72959 10.177 9.87874 10.5874C10.0162 10.9523 10.2147 11.2912 10.4657 11.5896C10.725 11.8959 11.018 12.1721 11.3391 12.4128C11.6755 12.6705 12.0549 12.9211 12.42 13.1716C12.5489 13.2504 12.6705 13.3363 12.7851 13.415L16.4001 13.4651Z" fill="#00A651"/>
<path d="M4.29517 12.4343H8.01758M28.1186 12.4343H31.8696M10.0864 2.89917C15.2389 4.02915 20.5751 4.02915 25.7277 2.89917M10.0864 22.1412C15.2389 21.0112 20.5751 21.0112 25.7277 22.1412" stroke="#0071BC" stroke-width="0.458143" stroke-miterlimit="2.61"/>
</svg>
