<svg width="302" height="45" viewBox="0 0 302 45" fill="none" xmlns="http://www.w3.org/2000/svg">
<g clip-path="url(#clip0_9989_97864)">
<path d="M68.779 9.52161H71.4318L74.5202 14.5708L74.4177 12.5076V9.52161H77.0833V18.7742H74.4177L71.3805 13.725L71.4702 15.8395V18.7742H68.779V9.52161ZM78.6596 9.52161H81.4661V12.6485H84.1316V9.52161H86.9382V18.7742H84.1316V15.1987H81.4661V18.7742H78.6596V9.52161ZM90.9365 9.52161H93.743L96.8059 18.7742H94.0506L93.7046 17.4927H90.9365L90.6033 18.7742H87.8737L90.9365 9.52161ZM91.4491 15.6216H93.2176L92.3206 12.2897L91.4491 15.6088V15.6216ZM94.2172 8.57329H92.5769L90.5136 6.66382H93.0767L94.2685 8.57329H94.2172ZM101.419 9.52161H104.585L105.777 11.8796L107.058 9.52161H110.211L107.302 13.9685L110.223 18.7742H107.071L105.687 16.2111L104.316 18.7742H101.125L104.162 13.9685L101.432 9.52161H101.419ZM111.005 9.52161H113.735V15.0962C113.697 15.5406 113.79 15.9863 114.004 16.3777C114.11 16.5219 114.253 16.6356 114.417 16.7076C114.581 16.7795 114.761 16.8072 114.939 16.7878C115.124 16.8039 115.31 16.7736 115.48 16.6998C115.65 16.6259 115.799 16.5108 115.913 16.3649C116.143 15.9789 116.246 15.5309 116.208 15.0834V9.52161H118.938V14.8527C118.989 15.4311 118.926 16.014 118.753 16.5682C118.579 17.1223 118.298 17.6367 117.925 18.0822C117.524 18.4429 117.053 18.7185 116.542 18.8925C116.031 19.0665 115.49 19.1352 114.952 19.0946C113.867 19.1762 112.794 18.8262 111.966 18.1206C111.588 17.6712 111.303 17.1505 111.129 16.5892C110.955 16.0279 110.896 15.4375 110.954 14.8527V9.52161H111.005ZM122.834 9.52161H125.679L128.741 18.7742H125.96L125.614 17.4927H122.834L122.5 18.7742H119.771L122.834 9.52161ZM123.359 15.6216H125.127L124.23 12.3025L123.359 15.6216ZM125.204 7.16362L126.704 8.94493H125.051L124.282 8.15039L123.513 8.94493H121.86L123.359 7.16362H125.204ZM125.204 7.16362L126.396 5.26697H128.959L126.896 7.16362H125.204ZM129.305 9.59851H137.135V12.0334H134.572V18.8511H131.779V11.9565H129.216V9.52161L129.305 9.59851ZM142.313 9.59851H146.465C148.72 9.59851 149.848 10.3674 149.848 11.9052C149.847 12.1804 149.799 12.4534 149.707 12.7126C149.629 12.951 149.508 13.1727 149.348 13.3662C149.168 13.5833 148.961 13.777 148.733 13.9429C149.042 14.0134 149.323 14.174 149.54 14.4042C149.751 14.631 149.917 14.8965 150.027 15.1859C150.12 15.4452 150.167 15.7181 150.168 15.9933V16.1214C150.186 16.6767 150.029 17.2236 149.72 17.6849C149.403 18.1195 148.953 18.4389 148.438 18.5948C148.16 18.6899 147.872 18.7544 147.58 18.787C147.223 18.837 146.863 18.8584 146.503 18.8511H142.441V9.52161L142.313 9.59851ZM145.119 11.7515V13.3021H146.298C146.548 13.3213 146.796 13.2433 146.99 13.0842C147.065 13.0133 147.124 12.9278 147.163 12.8329C147.203 12.7381 147.223 12.636 147.221 12.5332C147.23 12.4329 147.218 12.3319 147.184 12.2368C147.151 12.1418 147.098 12.0549 147.029 11.9821C146.783 11.8319 146.494 11.7687 146.208 11.8027L145.119 11.7515ZM145.119 14.9937V16.6981H146.401C147.157 16.6981 147.541 16.429 147.541 15.878C147.559 15.7391 147.537 15.5981 147.478 15.4711C147.419 15.3441 147.326 15.2364 147.208 15.1603C146.818 15.0199 146.404 14.9631 145.991 14.9937H145.119ZM153.974 9.52161H156.819L159.882 18.7742H157.089L156.755 17.4927H153.974L153.641 18.7742H150.912L153.974 9.52161ZM154.5 15.6216H156.268L155.333 12.2897L154.474 15.6088L154.5 15.6216ZM154.91 8.84241C154.902 8.56582 154.978 8.29331 155.128 8.06068L155.423 7.7403L155.705 7.50963C155.793 7.44995 155.868 7.37114 155.922 7.27895C155.973 7.19897 155.996 7.10419 155.986 7.00984C155.991 6.95584 155.981 6.90166 155.959 6.85235C155.936 6.80305 155.902 6.76023 155.858 6.7279C155.759 6.65395 155.636 6.61763 155.512 6.62538C155.457 6.62998 155.404 6.64603 155.355 6.67251C155.307 6.69899 155.264 6.73532 155.23 6.77916L155.141 6.95857C155.126 7.04341 155.126 7.13005 155.141 7.21488H153.859C153.871 6.94826 153.936 6.68675 154.051 6.44596C154.184 6.1449 154.427 5.90631 154.731 5.77957C155.028 5.64217 155.351 5.56799 155.679 5.56172C155.982 5.55396 156.284 5.61075 156.563 5.72832C156.811 5.82819 157.027 5.99178 157.191 6.20248C157.336 6.41823 157.412 6.67299 157.409 6.93294C157.424 7.22469 157.323 7.51047 157.127 7.72748L156.781 7.99661L156.576 8.11194L156.473 8.20165C156.208 8.3358 156.002 8.56435 155.897 8.84241H154.91ZM160.933 9.52161H163.586L166.623 14.5708L166.533 12.5076V9.52161H169.225V18.7742H166.572L163.535 13.725L163.637 15.8395V18.7742H160.933V9.52161ZM68.7406 27.3476H72.4314C73.2516 27.3266 74.0674 27.4749 74.8278 27.7833C75.4957 28.077 76.0493 28.581 76.4041 29.2186C76.8113 30.0095 77.0056 30.8928 76.968 31.7816C77.0309 32.4436 76.9601 33.1114 76.7598 33.7455C76.5594 34.3795 76.2336 34.9668 75.8018 35.4724C74.8671 36.2813 73.6522 36.6908 72.4186 36.6129H68.7406V33.0247H67.9717V30.4616H68.7406V27.3476ZM71.5471 29.5005V30.4873H72.5723V33.0503H71.5471V34.4728H72.1751C73.4566 34.4728 74.1614 33.6398 74.1614 31.9098V31.8329C74.215 31.1912 74.0623 30.5492 73.7257 30.0003C73.4996 29.7933 73.2312 29.638 72.9391 29.5451C72.647 29.4521 72.3382 29.4238 72.0341 29.4621L71.5471 29.5005ZM80.4024 27.3476H83.2474L86.3102 36.6386H83.4909L83.1449 35.3571H80.4024L80.0692 36.6386H77.3396L80.4024 27.3732V27.3476ZM80.9278 33.4476H82.6963L81.7865 30.1285L80.9278 33.4476ZM80.569 37.5869H83.0295V39.6373H80.569V37.5869ZM87.4636 27.3347H90.2829V36.6386H87.4636V27.3476V27.3347ZM95.9216 27.3347H98.741V30.4873H101.432V27.3476H104.252V36.6386H101.432V33.0503H98.741V36.6386H95.9216V27.3476V27.3347ZM109.788 27.0913C110.62 27.0651 111.441 27.2882 112.146 27.732C112.785 28.1597 113.284 28.7658 113.581 29.4749C113.744 29.847 113.872 30.233 113.965 30.6282C114.011 30.8134 114.041 31.002 114.055 31.1921C114.068 31.4141 114.068 31.6366 114.055 31.8585V31.9867C114.088 33.2257 113.685 34.437 112.915 35.4083C112.534 35.8871 112.045 36.2682 111.488 36.5201C110.931 36.7719 110.321 36.8872 109.711 36.8564C109.354 36.8572 108.997 36.8229 108.647 36.7539C108.323 36.6794 108.01 36.5676 107.712 36.4207C107.17 36.1557 106.703 35.7592 106.353 35.2673C106.015 34.7785 105.76 34.2373 105.597 33.6654C105.519 33.3747 105.459 33.0794 105.418 32.7812C105.376 32.4839 105.355 32.1843 105.354 31.8841C105.349 31.257 105.449 30.6334 105.648 30.0387C105.837 29.4723 106.123 28.9432 106.494 28.4753C106.885 28.0129 107.378 27.6473 107.934 27.4072C108.489 27.1671 109.093 27.059 109.698 27.0913H109.788ZM109.788 29.3467C109.55 29.3437 109.315 29.4037 109.108 29.5208C108.901 29.6378 108.729 29.8077 108.609 30.0131C108.277 30.5834 108.121 31.2386 108.16 31.897C108.13 32.5693 108.28 33.2375 108.596 33.832C108.716 34.0451 108.891 34.2219 109.103 34.3437C109.315 34.4655 109.556 34.5278 109.8 34.5241C110.89 34.5241 111.428 33.6911 111.428 31.961V31.8329C111.448 31.1946 111.311 30.5611 111.031 29.9875C110.922 29.7438 110.741 29.5399 110.511 29.4044C110.281 29.2689 110.015 29.2084 109.749 29.2314L109.788 29.3467ZM108.634 37.5741H111.095V39.6245H108.634V37.5741ZM120.809 30.8846C120.824 30.6414 120.781 30.3982 120.683 30.1753C120.584 29.9523 120.434 29.7561 120.245 29.603C120.102 29.5101 119.946 29.4368 119.784 29.3852C119.626 29.3337 119.462 29.3078 119.297 29.3083C119.028 29.2873 118.759 29.3515 118.529 29.4919C118.299 29.6322 118.119 29.8415 118.015 30.09C117.744 30.6891 117.612 31.342 117.631 31.9995C117.631 33.7039 118.182 34.5625 119.297 34.5625C120.151 34.5625 120.638 34.0371 120.757 32.9862H123.449C123.382 34.0365 122.925 35.0239 122.167 35.7543C121.805 36.1144 121.367 36.3901 120.886 36.5617C120.377 36.7497 119.838 36.841 119.297 36.8308C118.453 36.8499 117.619 36.6513 116.874 36.2541C116.19 35.8687 115.64 35.2828 115.298 34.5753C115.11 34.2011 114.968 33.8051 114.875 33.3963C114.775 32.942 114.728 32.4775 114.734 32.0123C114.698 31.045 114.919 30.0854 115.375 29.2314C115.725 28.591 116.237 28.0539 116.86 27.6738C117.483 27.2937 118.195 27.084 118.925 27.0656H119.027C119.68 27.0477 120.33 27.1431 120.95 27.3476C121.446 27.5067 121.89 27.7993 122.231 28.1934C122.842 28.9596 123.22 29.8846 123.321 30.8589L120.809 30.8846ZM133.086 30.0131C133.009 29.4877 132.624 29.2186 131.932 29.2186C131.24 29.2186 131.061 29.3852 131.061 29.7184C131.06 29.8193 131.084 29.9189 131.131 30.0083C131.178 30.0977 131.247 30.1742 131.33 30.231C131.572 30.3824 131.835 30.4948 132.112 30.5642L133.06 30.8333C133.858 31.0068 134.607 31.3572 135.251 31.8585C135.497 32.0862 135.689 32.3647 135.815 32.6747C135.942 32.9846 135.998 33.3184 135.982 33.6526C136.016 34.3069 135.826 34.9532 135.444 35.4852C135.06 35.9688 134.543 36.3296 133.957 36.5232C133.327 36.7436 132.664 36.8562 131.996 36.8564C131.038 36.8809 130.101 36.573 129.344 35.985C128.99 35.7142 128.702 35.3684 128.498 34.9726C128.285 34.5795 128.179 34.1378 128.19 33.6911H130.907C130.917 33.8514 130.969 34.0063 131.056 34.141C131.144 34.2756 131.265 34.3855 131.407 34.46C131.658 34.6001 131.94 34.675 132.227 34.6779C132.881 34.6779 133.252 34.4728 133.316 34.0499V34.0755C133.313 33.9596 133.276 33.8471 133.21 33.7516C133.144 33.6561 133.052 33.5817 132.945 33.5373L132.291 33.2938L131.65 33.1016L130.651 32.794L130.279 32.653C130.139 32.6004 130.003 32.5405 129.869 32.4736C129.439 32.2605 129.069 31.9433 128.793 31.5509C128.5 31.0835 128.357 30.5382 128.383 29.9875C128.377 29.5968 128.465 29.2106 128.639 28.8607C128.813 28.5109 129.068 28.2074 129.382 27.9755C130.175 27.4083 131.138 27.1281 132.112 27.181C132.669 27.1796 133.222 27.2661 133.752 27.4373C134.257 27.6261 134.7 27.9497 135.034 28.3728C135.427 28.8693 135.663 29.4715 135.713 30.1028L133.086 30.0131ZM145.119 28.2574V32.6018C145.221 33.7696 144.857 34.9303 144.107 35.8312C143.703 36.194 143.231 36.4717 142.718 36.6478C142.205 36.824 141.662 36.8949 141.121 36.8564C140.038 36.9339 138.969 36.5791 138.148 35.8697C137.767 35.4213 137.48 34.901 137.304 34.3397C137.128 33.7784 137.066 33.1874 137.122 32.6018V27.3476H139.878V32.9222C139.839 33.3681 139.937 33.8153 140.16 34.2037C140.268 34.3446 140.412 34.4551 140.576 34.5247C140.739 34.5942 140.918 34.6205 141.095 34.601C141.279 34.6162 141.463 34.5869 141.633 34.5155C141.802 34.4441 141.952 34.3327 142.069 34.1909C142.296 33.8039 142.399 33.3566 142.364 32.9093V27.3476H145.094V27.6679C145.286 27.5526 145.375 27.4244 145.375 27.3091C145.375 27.1938 145.299 27.181 145.158 27.1297H145.055H144.965H144.863C144.771 27.0802 144.689 27.0152 144.619 26.9375C144.457 26.7481 144.366 26.5077 144.363 26.2583C144.364 25.9897 144.469 25.732 144.658 25.5406C144.749 25.4413 144.86 25.3626 144.984 25.3095C145.107 25.2565 145.241 25.2304 145.375 25.233C145.614 25.2272 145.847 25.3093 146.029 25.4637C146.217 25.6364 146.343 25.866 146.388 26.1173V26.3864C146.4 26.8797 146.237 27.3612 145.927 27.7448C145.713 28.0113 145.422 28.204 145.094 28.2959L145.119 28.2574ZM150.373 27.3347H154.474C155.462 27.26 156.442 27.5622 157.217 28.1805C157.53 28.4742 157.775 28.8329 157.934 29.2314C158.094 29.63 158.164 30.0587 158.139 30.4873V30.6026C158.14 31.0035 158.075 31.4018 157.947 31.7816C157.844 32.159 157.646 32.5033 157.37 32.7812C157.226 32.9248 157.067 33.0535 156.896 33.1657L156.55 33.3451L156.281 33.4604C155.744 33.6387 155.181 33.7211 154.615 33.7039H153.18V36.6386H150.373V27.3476V27.3347ZM153.18 29.4877V31.5125H154.385C154.531 31.5341 154.68 31.5211 154.821 31.4746C154.961 31.4282 155.089 31.3495 155.193 31.2449C155.298 31.1403 155.377 31.0126 155.423 30.8722C155.47 30.7317 155.483 30.5824 155.461 30.436C155.461 29.7824 154.974 29.4492 154 29.4492L153.18 29.4877ZM159.101 27.3476H161.907V30.4873H164.573V27.3476H167.379V36.6386H164.573V33.0503H161.907V36.6386H159.101V27.3476ZM171.378 27.3476H174.222L177.272 36.6386H174.479L174.133 35.3571H171.365L171.032 36.6386H168.302L171.365 27.3732L171.378 27.3476ZM171.89 33.4476H173.659L172.762 30.1285L171.916 33.4476H171.89ZM171.544 37.5869H173.992V39.6373H171.531V37.5869H171.544ZM181.642 27.3347L183.142 33.1144L184.654 27.3347H188.037V36.6386H185.474V34.947V32.3839L185.628 30.7051L184.103 36.6386H182.168L180.617 30.6923L180.707 31.9738V33.2554C180.707 33.3963 180.707 33.6142 180.707 33.8833C180.707 34.1524 180.707 34.3575 180.707 34.4856V36.6386H178.221V27.3476L181.642 27.3347ZM193.035 27.3347H200.865V29.7696H198.302V36.6386H195.496V29.7824H192.933V27.3476L193.035 27.3347ZM201.929 27.3347H206.017C207.009 27.2606 207.993 27.5625 208.772 28.1805C209.083 28.4753 209.326 28.8346 209.483 29.2331C209.64 29.6316 209.708 30.0597 209.682 30.4873V30.6026C209.681 31.0023 209.62 31.3996 209.503 31.7816C209.395 32.1596 209.192 32.5037 208.913 32.7812C208.776 32.9279 208.621 33.057 208.452 33.1657L208.093 33.3451L207.837 33.4604C207.296 33.6386 206.727 33.721 206.158 33.7039H204.723V36.6386H201.929V27.3476V27.3347ZM204.723 29.4877V31.5125H205.94C206.086 31.5341 206.236 31.5211 206.376 31.4746C206.517 31.4282 206.644 31.3495 206.749 31.2449C206.854 31.1403 206.932 31.0126 206.979 30.8722C207.025 30.7317 207.038 30.5824 207.017 30.436C207.017 29.7824 206.53 29.4492 205.556 29.4492L204.723 29.4877ZM214.578 27.3347H217.397V30.4873H220.05V27.3476H222.869V36.6386H220.05V33.0503H217.397V36.6386H214.578V27.3476V27.3347ZM228.444 27.0913C229.272 27.0653 230.089 27.2885 230.789 27.732C231.431 28.1589 231.935 28.7649 232.237 29.4749C232.399 29.847 232.528 30.233 232.621 30.6282C232.621 30.7948 232.621 30.9871 232.711 31.1921C232.724 31.4141 232.724 31.6366 232.711 31.8585V31.9867C232.739 33.2249 232.336 34.4344 231.571 35.4083C231.19 35.8871 230.701 36.2682 230.144 36.5201C229.587 36.7719 228.977 36.8872 228.367 36.8564C228.01 36.8572 227.653 36.8229 227.303 36.7539C226.975 36.6795 226.657 36.5677 226.355 36.4207C225.838 36.1496 225.397 35.753 225.073 35.2673C224.726 34.7822 224.465 34.2401 224.304 33.6654C224.227 33.3707 224.176 33.0759 224.125 32.7812C224.105 32.4825 224.105 32.1828 224.125 31.8841C224.117 31.2577 224.212 30.6342 224.407 30.0387C224.601 29.4721 224.891 28.9431 225.265 28.4753C225.652 28.0082 226.144 27.6393 226.701 27.3988C227.258 27.1582 227.864 27.0529 228.469 27.0913H228.444ZM228.444 29.3467C228.206 29.3437 227.971 29.4037 227.764 29.5208C227.557 29.6378 227.385 29.8077 227.265 30.0131C226.933 30.5834 226.777 31.2386 226.816 31.897C226.779 32.5699 226.93 33.2398 227.252 33.832C227.371 34.0461 227.546 34.2236 227.758 34.3455C227.97 34.4675 228.212 34.5292 228.456 34.5241C229.533 34.5241 230.084 33.6911 230.084 31.961V31.8329C230.097 31.1952 229.961 30.5632 229.687 29.9875C229.578 29.7438 229.397 29.5399 229.167 29.4044C228.937 29.2689 228.671 29.2084 228.405 29.2314L228.444 29.3467ZM229.494 24.9255L230.994 26.7068H229.328L228.559 25.9251L227.79 26.7068H226.137L227.636 24.9255H229.494ZM231.596 24.9255H229.956L227.893 23.0288H230.456L231.635 24.9255H231.596ZM243.399 30.9102C243.414 30.6671 243.371 30.4239 243.273 30.2009C243.175 29.9779 243.025 29.7817 242.835 29.6287C242.692 29.5357 242.537 29.4625 242.374 29.4108C242.217 29.3594 242.052 29.3334 241.887 29.3339C241.618 29.3129 241.35 29.3772 241.12 29.5175C240.889 29.6578 240.71 29.8671 240.605 30.1156C240.334 30.7147 240.202 31.3677 240.221 32.0251C240.221 33.7295 240.772 34.5881 241.887 34.5881C242.741 34.5881 243.228 34.0627 243.348 33.0119H246.039C245.978 34.0637 245.52 35.0533 244.757 35.78C244.395 36.1401 243.957 36.4158 243.476 36.5873C242.968 36.7753 242.429 36.8666 241.887 36.8564C241.043 36.8756 240.209 36.677 239.465 36.2798C238.783 35.8905 238.234 35.3057 237.888 34.601C237.7 34.2267 237.558 33.8308 237.465 33.422C237.372 32.9666 237.324 32.5029 237.325 32.0379C237.288 31.0706 237.509 30.111 237.965 29.257C238.316 28.6148 238.831 28.0765 239.456 27.6963C240.082 27.316 240.796 27.1074 241.528 27.0913H241.618C242.27 27.0733 242.92 27.1687 243.54 27.3732C244.037 27.5323 244.48 27.8249 244.821 28.219C245.432 28.9852 245.81 29.9102 245.911 30.8846L243.399 30.9102ZM247.243 27.3604H250.088V30.4873H252.754V27.3476H255.561V36.6386H252.754V33.0503H250.088V36.6386H247.282V27.3476L247.243 27.3604ZM257.214 27.3604H260.02V36.6386H257.214V27.3476V27.3604ZM257.214 26.412L258.406 24.5026H260.969L258.841 26.3864L257.214 26.412ZM268.991 27.3604L270.49 33.14L272.002 27.3604H275.386V36.6386H272.823V34.947V32.3839L272.976 30.7051L271.451 36.6386H269.516L267.953 30.6923L268.055 31.9738V33.2554C268.055 33.3963 268.055 33.6142 268.055 33.8833C268.055 34.1524 268.055 34.3575 268.055 34.4856V36.6386H265.595V27.3476L268.991 27.3604ZM276.975 27.3604H279.794V36.6386H277V27.3476L276.975 27.3604ZM281.499 27.3604H284.151L287.188 32.4096L287.086 30.3463V27.3476H289.816V36.6386H287.124L284.087 31.5125L284.177 33.6142V36.6386H281.486V27.3476L281.499 27.3604ZM291.379 27.3604H294.186V30.4873H296.851V27.3476H299.658V36.6386H296.851V33.0503H294.173V36.6386H291.366V27.3476L291.379 27.3604Z" fill="#0071BC"/>
<path fill-rule="evenodd" clip-rule="evenodd" d="M32.2302 0.00012207C50.0177 0.00012207 64.4476 9.95753 64.4476 22.2601C64.4476 34.5627 50.0049 44.5201 32.2302 44.5201C14.4555 44.5201 0 34.5499 0 22.2601C0 9.97035 14.4171 0.00012207 32.2302 0.00012207Z" fill="white"/>
<path fill-rule="evenodd" clip-rule="evenodd" d="M32.2302 1.83289C49.1591 1.83289 62.8842 10.9829 62.8842 22.2603C62.8842 33.5377 49.1463 42.6877 32.2302 42.6877C15.3142 42.6877 1.56348 33.5377 1.56348 22.2603C1.56348 10.9829 15.2886 1.83289 32.2302 1.83289ZM32.2302 1.83289C45.8784 1.83289 56.9636 10.9829 56.9636 22.2603C56.9636 33.5377 45.8656 42.6877 32.2302 42.6877C18.5949 42.6877 7.49691 33.5377 7.49691 22.2603C7.49691 10.9829 18.5564 1.83289 32.2302 1.83289Z" fill="#0071BC" stroke="#0071BC" stroke-width="0.576684" stroke-miterlimit="2.61"/>
<path fill-rule="evenodd" clip-rule="evenodd" d="M31.1666 15.1733V9.26549C25.8191 7.12765 19.8543 7.12765 14.5068 9.26549V35.1522C20.0078 33.8703 25.7298 33.8703 31.2307 35.1522V15.1733H31.1666Z" fill="white"/>
<path d="M31.1666 15.1733V9.26549C25.8191 7.12765 19.8543 7.12765 14.5068 9.26549V35.1522C20.0078 33.8703 25.7298 33.8703 31.2307 35.1522V21.0555H28.2832" stroke="#A25641" stroke-width="1.14055" stroke-miterlimit="2.61"/>
<path fill-rule="evenodd" clip-rule="evenodd" d="M33.2676 18.0823V9.26549C38.6151 7.12765 44.5798 7.12765 49.9273 9.26549V35.1522C44.4469 33.8802 38.748 33.8802 33.2676 35.1522V18.0823Z" fill="white" stroke="#A25641" stroke-width="1.14055" stroke-miterlimit="2.61"/>
<path d="M39.7786 32.3328H39.3301V28.9496H39.7786V30.2311H40.4066V28.9496H40.8551V32.3456H40.4066V30.7694H39.7786V32.3328ZM42.3416 31.0513H42.7902V31.2564C42.808 31.5204 42.7595 31.7847 42.6492 32.0253C42.6021 32.1238 42.5273 32.2066 42.4341 32.2634C42.3408 32.3203 42.233 32.3489 42.1238 32.3456C42.0245 32.3539 41.9245 32.3398 41.8314 32.3043C41.7382 32.2688 41.6542 32.2128 41.5856 32.1406C41.464 31.9802 41.3886 31.7897 41.3677 31.5895C41.3494 31.3207 41.3494 31.051 41.3677 30.7822V30.3593C41.3518 29.9959 41.3951 29.6323 41.4958 29.2828C41.5456 29.1493 41.6377 29.0358 41.758 28.9594C41.8783 28.8831 42.0202 28.8481 42.1622 28.8599C42.2559 28.8569 42.3489 28.8762 42.4336 28.9163C42.5183 28.9565 42.5922 29.0162 42.6492 29.0906C42.775 29.2795 42.8337 29.5051 42.8158 29.7313V29.9876H42.3801C42.3801 29.7313 42.3801 29.6032 42.3801 29.5904C42.3801 29.5776 42.2904 29.3597 42.1879 29.3597C42.0853 29.3597 41.97 29.4494 41.9187 29.616C41.8954 29.7732 41.8954 29.933 41.9187 30.0902V31.1666C41.9014 31.3199 41.9014 31.4747 41.9187 31.628C41.9187 31.8074 42.0597 31.8971 42.2007 31.8971C42.3416 31.8971 42.3801 31.7946 42.4057 31.5895C42.416 31.4316 42.416 31.2733 42.4057 31.1154L42.3416 31.0513ZM43.6232 31.2051V32.2687H43.1746V28.9496H43.8923L44.1358 30.5259C44.1358 30.6284 44.1358 30.7437 44.1358 30.8847C44.1484 31.0254 44.1484 31.1669 44.1358 31.3076C44.1358 31.1538 44.1358 31.0129 44.1358 30.8719C44.1297 30.7566 44.1297 30.6411 44.1358 30.5259L44.5074 28.9496H45.2251V32.3456H44.7765V30.5002C44.7765 29.7442 44.7765 29.3212 44.7765 29.2187L44.2896 32.3072H44.0076L43.5335 29.2187C43.5335 29.4622 43.5335 29.7185 43.5335 29.9748C43.5335 30.7309 43.5335 31.1538 43.5335 31.2564L43.6232 31.2051ZM46.6988 31.2051V28.9496H47.1473V31.3076C47.1692 31.598 47.1163 31.8892 46.9936 32.1534C46.9252 32.2467 46.8337 32.3206 46.728 32.3677C46.6224 32.4149 46.5064 32.4338 46.3913 32.4225C46.2742 32.4348 46.1559 32.4165 46.0481 32.3693C45.9403 32.3221 45.8465 32.2477 45.7761 32.1534C45.6534 31.8892 45.6005 31.598 45.6223 31.3076V28.9496H46.0709V31.2564C46.0558 31.4351 46.0821 31.6149 46.1478 31.7818C46.172 31.8241 46.2077 31.8586 46.2509 31.8813C46.294 31.904 46.3427 31.9139 46.3913 31.9099C46.4518 31.9139 46.5117 31.895 46.5591 31.8571C46.6066 31.8191 46.6381 31.7649 46.6476 31.7049C46.6739 31.5565 46.6739 31.4047 46.6476 31.2564L46.6988 31.2051ZM47.9803 31.7946H48.9927V32.2944H47.4934V28.9496H48.9543V29.4494H47.9419V30.2311H48.8902V30.7309H47.9419V31.7818L47.9803 31.7946Z" fill="#00A651"/>
<path fill-rule="evenodd" clip-rule="evenodd" d="M40.188 23.8234L40.8032 23.9131C41.0764 23.9283 41.3502 23.9283 41.6234 23.9131C42.2818 23.9119 42.9371 23.8214 43.5713 23.644C44.2306 23.4666 44.8608 23.1946 45.4423 22.8366C46.0008 22.4936 46.4988 22.0606 46.916 21.5551C47.3905 20.982 47.7633 20.3318 48.0181 19.6328C48.3113 18.8103 48.4587 17.943 48.4539 17.0698C48.4528 16.3581 48.3492 15.6502 48.1463 14.9681C47.9736 14.4018 47.7142 13.8658 47.3774 13.379C47.0852 12.9607 46.7358 12.5854 46.3393 12.2641C46.0082 12.0003 45.6415 11.7846 45.2501 11.6233C44.8761 11.4572 44.485 11.3326 44.0839 11.2517C43.7245 11.1739 43.3607 11.1182 42.9946 11.0851H42.1103H39.1372H37.7403H36.1769H34.8057V23.9003H38.6502V17.8387C38.6502 16.9544 38.6502 16.2112 38.6502 15.596C38.6502 14.9809 38.6502 14.4939 38.6502 14.0967C38.6502 13.6994 38.6502 13.3918 38.6502 13.1611C38.6629 13.0527 38.6978 12.948 38.7527 12.8536C38.7721 12.7835 38.8123 12.7209 38.8681 12.6742C38.9732 12.6229 39.0856 12.5883 39.2013 12.5716H39.5986H39.9189C40.7796 12.5548 41.6262 12.7909 42.3538 13.2508C42.9882 13.7154 43.4772 14.3511 43.7635 15.0834C44.1109 15.9779 44.2849 16.9304 44.2761 17.89C44.3034 18.7961 44.1644 19.6995 43.866 20.5555C43.6134 21.2049 43.1657 21.7601 42.5845 22.1446C42.3297 22.3029 42.0535 22.4238 41.7643 22.5034C41.448 22.5952 41.1196 22.6384 40.7904 22.6316C40.5813 22.6463 40.3715 22.6463 40.1624 22.6316H39.7651C39.7196 22.6665 39.6878 22.7164 39.6754 22.7725C39.6632 22.8403 39.6632 22.9098 39.6754 22.9776C39.6901 23.0798 39.7204 23.1792 39.7651 23.2723C39.8189 23.4054 39.8832 23.534 39.9574 23.6568C40.0181 23.7667 40.096 23.8662 40.188 23.9515V23.8234ZM34.8057 24.6948V25.5663H38.6502V24.6948H34.8057ZM34.8057 26.2455V27.1169H38.6502V26.2455H34.8057ZM34.8057 27.8089V32.1917H35.062H36.7279H38.0095H38.6374V28.8726C38.6374 28.565 38.6374 28.2318 38.6374 27.8602L34.8057 27.8089Z" fill="#00A651"/>
<path fill-rule="evenodd" clip-rule="evenodd" d="M17.5187 25.9381C17.4113 25.8978 17.2929 25.8978 17.1855 25.9381C17.0319 25.9645 16.8815 26.0075 16.737 26.0662C16.6273 26.1158 16.5307 26.1904 16.4551 26.2841C16.4551 26.5276 16.4551 26.8479 16.5576 27.258C16.6601 27.6681 16.6729 28.091 16.737 28.5395C16.8011 28.9881 16.9036 29.4622 16.9805 29.898C17.0574 30.3337 17.1599 30.7181 17.2368 31.0385C17.2823 31.2604 17.3555 31.4756 17.4547 31.6793C17.8136 31.8784 18.1913 32.0416 18.5824 32.1663C19.1305 32.3526 19.6916 32.4982 20.2612 32.602C20.9295 32.7217 21.6071 32.7817 22.286 32.7814C23.3754 32.7956 24.4592 32.6222 25.4898 32.2688C26.3617 31.9602 27.1633 31.481 27.8478 30.8591C28.4702 30.2735 28.9596 29.5612 29.2831 28.7702C29.4165 28.4682 29.5237 28.1552 29.6035 27.8347H26.0408C26.0539 28.0224 26.0539 28.2108 26.0408 28.3986C26.0617 28.991 25.9151 29.5773 25.6179 30.0902C25.3624 30.5165 24.9884 30.8594 24.5415 31.077C24.0905 31.2955 23.5945 31.4053 23.0933 31.3973C22.7411 31.3982 22.3895 31.3682 22.0425 31.3076C21.6866 31.242 21.3387 31.1389 21.0045 31.0001C20.673 30.8708 20.3621 30.6938 20.0818 30.4746C19.4774 29.9894 18.9763 29.3881 18.608 28.7061C18.1353 27.8185 17.7614 26.8817 17.4931 25.9124L17.5187 25.9381ZM29.7316 27.2196C29.7514 26.9294 29.7514 26.6383 29.7316 26.3481H25.4513C25.6393 26.6152 25.7862 26.909 25.8871 27.2196H29.7316ZM29.7316 25.6689C29.7065 25.3754 29.6594 25.0841 29.5907 24.7975H23.8623L24.0929 24.9769C24.3661 25.1881 24.6231 25.4194 24.8618 25.6689H29.7316ZM29.36 24.1055C29.1038 23.4689 28.7299 22.8863 28.2579 22.3882C27.7194 21.8249 27.1173 21.326 26.4637 20.9017C26.0408 20.6198 25.6308 20.3506 25.1822 20.1071L23.9776 19.351C23.5803 19.1076 23.1574 18.8256 22.6961 18.5181C22.2878 18.2282 21.9138 17.8928 21.5812 17.5185C21.2796 17.191 21.0445 16.808 20.8891 16.3907C20.7285 15.9258 20.6632 15.4333 20.6969 14.9426C20.6926 14.402 20.8109 13.8675 21.0429 13.3792C21.2686 12.9128 21.619 12.5181 22.0553 12.2386C22.5293 11.936 23.0821 11.78 23.6444 11.7901C24.1037 11.7806 24.5617 11.8411 25.0028 11.9695C25.4158 12.0884 25.8028 12.284 26.1434 12.5462C26.4055 12.7527 26.6235 13.0098 26.7841 13.3023C26.9801 13.676 27.1307 14.0718 27.2327 14.4813C27.3703 15.0518 27.4773 15.6293 27.553 16.2113C27.6394 16.2732 27.7417 16.3088 27.8478 16.3138C27.9967 16.3329 28.1474 16.3329 28.2963 16.3138C28.4071 16.3028 28.5131 16.263 28.6039 16.1985C28.6039 15.1861 28.7192 14.2634 28.8217 13.4176C28.9243 12.5718 29.0268 11.8413 29.1549 11.2134C28.6551 11.2134 28.1682 11.0724 27.6556 10.9827C27.143 10.893 26.6175 10.7905 26.0152 10.7136C25.322 10.6314 24.6244 10.5929 23.9263 10.5983C23.056 10.5896 22.1902 10.7239 21.3633 10.9955C20.5919 11.2461 19.8776 11.6468 19.2616 12.1745C18.6472 12.7015 18.157 13.358 17.8263 14.0968C17.4717 14.9043 17.2926 15.7779 17.3009 16.6599C17.288 17.4415 17.4183 18.219 17.6853 18.9538C17.9315 19.607 18.2868 20.2137 18.7362 20.7479C19.2003 21.2963 19.7248 21.7907 20.2996 22.2217C20.9019 22.683 21.5812 23.1315 22.2347 23.5801C22.4654 23.721 22.6833 23.8748 22.8883 24.0158L29.36 24.1055Z" fill="#00A651"/>
<path d="M7.68945 22.2603H14.3534M50.3384 22.2603H57.0536M18.0569 5.19043C27.2811 7.21334 36.834 7.21334 46.0582 5.19043M18.0569 39.6377C27.2811 37.6148 36.834 37.6148 46.0582 39.6377" stroke="#0071BC" stroke-width="0.820173" stroke-miterlimit="2.61"/>
</g>
<defs>
<clipPath id="clip0_9989_97864">
<rect width="301.04" height="44.5201" fill="white"/>
</clipPath>
</defs>
</svg>
